<svg xmlns="http://www.w3.org/2000/svg" xmlns:xlink="http://www.w3.org/1999/xlink" width="1920" zoomAndPan="magnify" viewBox="0 0 1440 1439.999935" height="1920" preserveAspectRatio="xMidYMid meet" version="1.0"><defs><g/></defs><rect x="-144" width="1728" fill="rgb(100%, 100%, 100%)" y="-143.999994" height="1727.999922" fill-opacity="1"/><rect x="-144" width="1728" fill="rgb(100%, 100%, 100%)" y="-143.999994" height="1727.999922" fill-opacity="1"/><rect x="-144" width="1728" fill="rgb(100%, 100%, 100%)" y="-143.999994" height="1727.999922" fill-opacity="1"/><rect x="-144" width="1728" fill="rgb(100%, 100%, 100%)" y="-143.999994" height="1727.999922" fill-opacity="1"/><g fill="rgb(89.408875%, 11.759949%, 6.669617%)" fill-opacity="1"><g transform="translate(751.45876, 605.077216)"><g><path d="M 100.117188 -176.613281 L 73.964844 -176.613281 L 73.964844 -179.421875 L 100.117188 -179.421875 Z M 22.5 -26.996094 L 3.65625 -26.996094 L 3.65625 -29.808594 L 22.5 -29.808594 Z M 68.339844 -165.363281 L 68.339844 -192.078125 L 96.460938 -192.078125 L 96.460938 -197.984375 L 60.183594 -197.984375 L 60.183594 -215.421875 L 81.273438 -215.421875 L 81.273438 -221.890625 C 81.273438 -230.605469 75.089844 -231.730469 72.277344 -231.730469 L 42.464844 -231.730469 C 39.652344 -231.730469 33.183594 -230.605469 33.183594 -221.890625 L 33.183594 -215.421875 L 18.5625 -215.421875 L 18.5625 -197.984375 L 39.371094 -197.984375 L 39.371094 -192.078125 L 26.714844 -192.078125 L 26.714844 -165.363281 L 15.75 -165.363281 L 15.75 -147.925781 L 36.277344 -147.925781 L 36.277344 -119.242188 L 12.375 -119.242188 L 12.375 -113.335938 L 21.65625 -113.335938 L 21.65625 -68.621094 L 31.496094 -68.621094 L 31.496094 -51.183594 L 21.65625 -51.183594 L 21.65625 -39.089844 L 34.027344 -39.089844 L 34.027344 -21.65625 L 23.0625 -21.65625 L 23.0625 -9.5625 C 23.0625 -0.84375 28.683594 0.28125 31.214844 0.28125 L 57.089844 0.28125 C 59.339844 0.28125 64.964844 -0.84375 64.964844 -9.5625 L 64.964844 -21.65625 L 75.652344 -21.65625 L 75.652344 -39.089844 L 63.277344 -39.089844 L 63.277344 -51.183594 L 73.121094 -51.183594 L 73.121094 -68.621094 L 63.277344 -68.621094 L 63.277344 -113.335938 L 88.867188 -113.335938 L 88.867188 -119.242188 L 77.898438 -119.242188 L 77.898438 -147.925781 L 57.371094 -147.925781 L 57.371094 -165.363281 Z M 68.339844 -165.363281 "/></g></g></g><g fill="rgb(89.408875%, 11.759949%, 6.669617%)" fill-opacity="1"><g transform="translate(927.784677, 605.077216)"><g><path d="M 100.117188 -176.613281 L 73.964844 -176.613281 L 73.964844 -179.421875 L 100.117188 -179.421875 Z M 22.5 -26.996094 L 3.65625 -26.996094 L 3.65625 -29.808594 L 22.5 -29.808594 Z M 68.339844 -165.363281 L 68.339844 -192.078125 L 96.460938 -192.078125 L 96.460938 -197.984375 L 60.183594 -197.984375 L 60.183594 -215.421875 L 81.273438 -215.421875 L 81.273438 -221.890625 C 81.273438 -230.605469 75.089844 -231.730469 72.277344 -231.730469 L 42.464844 -231.730469 C 39.652344 -231.730469 33.183594 -230.605469 33.183594 -221.890625 L 33.183594 -215.421875 L 18.5625 -215.421875 L 18.5625 -197.984375 L 39.371094 -197.984375 L 39.371094 -192.078125 L 26.714844 -192.078125 L 26.714844 -165.363281 L 15.75 -165.363281 L 15.75 -147.925781 L 36.277344 -147.925781 L 36.277344 -119.242188 L 12.375 -119.242188 L 12.375 -113.335938 L 21.65625 -113.335938 L 21.65625 -68.621094 L 31.496094 -68.621094 L 31.496094 -51.183594 L 21.65625 -51.183594 L 21.65625 -39.089844 L 34.027344 -39.089844 L 34.027344 -21.65625 L 23.0625 -21.65625 L 23.0625 -9.5625 C 23.0625 -0.84375 28.683594 0.28125 31.214844 0.28125 L 57.089844 0.28125 C 59.339844 0.28125 64.964844 -0.84375 64.964844 -9.5625 L 64.964844 -21.65625 L 75.652344 -21.65625 L 75.652344 -39.089844 L 63.277344 -39.089844 L 63.277344 -51.183594 L 73.121094 -51.183594 L 73.121094 -68.621094 L 63.277344 -68.621094 L 63.277344 -113.335938 L 88.867188 -113.335938 L 88.867188 -119.242188 L 77.898438 -119.242188 L 77.898438 -147.925781 L 57.371094 -147.925781 L 57.371094 -165.363281 Z M 68.339844 -165.363281 "/></g></g></g><g fill="rgb(89.408875%, 11.759949%, 6.669617%)" fill-opacity="1"><g transform="translate(1104.110595, 605.077216)"><g><path d="M 185.046875 -113.617188 C 189.265625 -119.804688 192.359375 -127.113281 194.328125 -135.832031 L 229.761719 -135.832031 C 230.324219 -137.800781 230.886719 -140.332031 231.167969 -142.582031 L 192.640625 -142.582031 C 193.765625 -148.769531 194.328125 -155.519531 194.328125 -162.832031 L 224.140625 -162.832031 C 224.140625 -163.113281 224.140625 -163.394531 224.140625 -163.675781 C 224.140625 -170.707031 223.578125 -177.175781 222.734375 -182.796875 L 211.765625 -182.796875 C 211.765625 -183.078125 211.765625 -183.078125 211.765625 -183.078125 L 199.390625 -183.078125 C 198.265625 -190.671875 196.578125 -197.140625 194.328125 -203.046875 L 216.265625 -203.046875 C 214.578125 -206.984375 212.609375 -210.640625 210.359375 -213.734375 C 207.828125 -217.671875 204.453125 -220.765625 200.515625 -223.296875 L 176.613281 -223.296875 C 168.457031 -228.917969 158.050781 -231.730469 144.832031 -231.730469 L 15.1875 -231.730469 C 12.9375 -231.730469 7.875 -230.886719 7.3125 -223.296875 L 31.214844 -223.296875 C 31.214844 -222.734375 31.214844 -222.453125 31.214844 -221.890625 L 31.214844 -203.046875 L 9 -203.046875 L 9 -199.671875 C 9 -190.953125 14.625 -190.109375 17.15625 -190.109375 L 139.488281 -190.109375 C 146.800781 -190.109375 151.863281 -188.140625 154.675781 -183.921875 C 154.675781 -183.640625 154.957031 -183.359375 154.957031 -183.078125 L 167.332031 -183.078125 C 167.332031 -183.078125 167.332031 -183.078125 167.332031 -182.796875 L 178.296875 -182.796875 C 181.109375 -178.578125 182.515625 -172.113281 182.515625 -163.675781 C 182.515625 -163.394531 182.234375 -163.113281 182.234375 -162.832031 L 152.707031 -162.832031 C 152.707031 -154.113281 151.019531 -147.644531 148.207031 -143.425781 C 147.925781 -143.144531 147.644531 -142.863281 147.363281 -142.582031 L 185.890625 -142.582031 C 182.796875 -139.207031 178.296875 -137.238281 171.550781 -137.238281 L 49.214844 -137.238281 C 48.089844 -137.238281 46.121094 -137.238281 44.152344 -135.832031 L 8.71875 -135.832031 C 7.03125 -134.425781 5.625 -131.894531 5.625 -127.675781 L 5.625 -104.617188 L 32.339844 -104.617188 L 32.339844 -84.367188 L 12.9375 -84.367188 L 12.9375 -51.464844 L 33.746094 -51.464844 L 33.746094 -44.433594 L 12.9375 -44.433594 L 12.9375 -9.5625 C 12.9375 -8.4375 12.9375 -7.3125 13.21875 -6.46875 L 26.152344 -6.46875 C 27.277344 -0.5625 31.777344 0.28125 34.027344 0.28125 L 59.621094 0.28125 C 61.871094 0.28125 66.089844 -0.5625 67.214844 -6.46875 L 54.277344 -6.46875 C 54.558594 -7.3125 54.558594 -8.4375 54.558594 -9.5625 L 54.558594 -44.433594 L 100.960938 -44.433594 L 100.960938 -51.464844 L 54.558594 -51.464844 L 54.558594 -84.367188 L 73.964844 -84.367188 L 73.964844 -95.617188 L 133.300781 -95.617188 L 139.488281 -84.367188 L 120.085938 -84.367188 L 138.925781 -51.464844 L 159.738281 -51.464844 L 163.394531 -44.433594 L 142.863281 -44.433594 L 164.519531 -6.46875 L 177.453125 -6.46875 L 178.015625 -5.34375 C 178.859375 -3.65625 179.984375 -2.25 180.828125 -1.40625 C 182.234375 -0.28125 184.203125 0.28125 187.015625 0.28125 L 217.671875 0.28125 C 221.046875 0.28125 223.578125 -1.96875 224.140625 -5.34375 C 224.140625 -5.625 224.140625 -5.90625 224.140625 -6.46875 L 211.203125 -6.46875 C 211.203125 -8.71875 210.921875 -10.6875 210.078125 -12.09375 L 190.953125 -44.433594 L 211.765625 -44.433594 L 207.828125 -51.464844 L 187.015625 -51.464844 L 167.613281 -84.367188 L 187.015625 -84.367188 L 179.984375 -96.460938 C 188.984375 -97.585938 196.578125 -100.398438 202.765625 -104.617188 L 176.050781 -104.617188 C 179.421875 -107.148438 182.515625 -110.242188 185.046875 -113.617188 Z M 86.054688 -147.082031 L 26.996094 -147.082031 L 26.996094 -154.394531 L 86.054688 -154.394531 Z M 112.210938 -175.769531 L 60.183594 -175.769531 L 60.183594 -179.421875 L 112.210938 -179.421875 Z M 127.113281 -24.46875 L 75.089844 -24.46875 L 75.089844 -28.402344 L 127.113281 -28.402344 Z M 127.113281 -24.46875 "/></g></g></g><g fill="rgb(89.408875%, 11.759949%, 6.669617%)" fill-opacity="1"><g transform="translate(96.281591, 956.198422)"><g><path d="M 248.058594 -54.050781 L 156.6875 -54.050781 L 156.6875 -58.234375 L 248.058594 -58.234375 Z M 159.582031 -170.84375 L 67.886719 -170.84375 L 67.886719 -175.027344 L 159.582031 -175.027344 Z M 194.972656 -203.015625 L 151.539062 -203.015625 L 151.539062 -207.199219 L 194.972656 -207.199219 Z M 254.171875 -99.417969 L 210.738281 -99.417969 L 210.738281 -103.921875 L 254.171875 -103.921875 Z M 142.53125 -94.269531 L 99.09375 -94.269531 L 99.09375 -98.453125 L 142.53125 -98.453125 Z M 293.746094 -142.53125 C 298.25 -151.539062 300.824219 -162.476562 301.148438 -175.347656 L 268.007812 -175.347656 C 268.007812 -176.957031 268.328125 -178.242188 268.328125 -179.851562 L 268.328125 -195.296875 L 289.242188 -195.296875 L 289.242188 -206.878906 C 289.242188 -213.632812 288.597656 -220.070312 287.3125 -225.859375 L 266.398438 -225.859375 C 265.753906 -228.433594 265.113281 -230.6875 264.46875 -232.617188 L 282.808594 -232.617188 C 280.234375 -240.015625 276.695312 -246.453125 272.191406 -252.242188 C 271.867188 -252.242188 271.867188 -252.566406 271.546875 -252.886719 L 253.851562 -252.886719 C 243.878906 -263.824219 228.433594 -269.617188 207.84375 -269.617188 L 42.792969 -269.617188 C 37.644531 -269.617188 35.070312 -266.722656 35.070312 -260.929688 L 35.070312 -252.886719 L 62.738281 -252.886719 L 62.738281 -232.617188 L 50.835938 -232.617188 L 50.835938 -231.007812 C 50.835938 -228.757812 51.15625 -227.46875 51.800781 -225.859375 L 72.390625 -225.859375 C 73.355469 -223.609375 75.285156 -222.320312 78.503906 -222.320312 L 224.25 -222.320312 C 230.6875 -222.320312 234.867188 -220.390625 237.441406 -216.53125 C 240.015625 -212.667969 241.304688 -207.199219 241.304688 -200.441406 L 241.304688 -195.296875 L 220.390625 -195.296875 L 220.390625 -179.851562 C 220.390625 -178.242188 220.390625 -176.632812 220.070312 -175.347656 L 249.027344 -175.347656 C 247.738281 -163.765625 241.625 -158.296875 231.007812 -158.296875 L 96.84375 -158.296875 C 77.539062 -158.296875 62.417969 -152.824219 52.121094 -142.53125 L 24.773438 -142.53125 C 24.128906 -142.207031 23.488281 -141.566406 22.84375 -140.921875 C 21.554688 -139.3125 20.269531 -137.703125 18.984375 -136.09375 L 46.972656 -136.09375 C 40.21875 -124.835938 36.679688 -110.355469 36.679688 -92.015625 L 36.679688 -84.617188 L 30.566406 -84.617188 L 30.566406 -64.667969 L 24.773438 -64.667969 L 24.773438 -50.835938 L 36.679688 -50.835938 L 36.679688 -32.496094 C 36.679688 -31.851562 36.679688 -31.53125 36.679688 -30.886719 L 16.085938 -30.886719 C 16.410156 -20.589844 18.660156 -12.546875 22.84375 -7.722656 C 27.347656 -2.574219 35.070312 0.320312 46.007812 0.320312 L 251.921875 0.320312 C 256.746094 0.320312 259.320312 -2.574219 259.320312 -8.363281 L 259.320312 -30.886719 L 279.589844 -30.886719 L 279.589844 -38.609375 C 279.589844 -44.398438 277.339844 -47.296875 272.191406 -47.296875 L 90.730469 -47.296875 C 87.835938 -47.296875 85.902344 -48.582031 84.9375 -50.835938 L 73.355469 -50.835938 C 72.710938 -52.121094 72.390625 -53.410156 72.390625 -55.339844 L 72.390625 -64.667969 L 101.347656 -64.667969 L 101.347656 -84.617188 L 84.296875 -84.617188 L 84.296875 -92.015625 C 84.296875 -106.496094 89.765625 -113.894531 101.027344 -113.894531 L 223.609375 -113.894531 C 242.269531 -113.894531 256.425781 -119.6875 265.753906 -130.949219 C 267.042969 -132.554688 268.328125 -134.164062 269.617188 -136.09375 L 257.390625 -136.09375 C 258.675781 -138.027344 259.964844 -140.277344 261.25 -142.53125 Z M 293.746094 -142.53125 "/></g></g></g><g fill="rgb(89.408875%, 11.759949%, 6.669617%)" fill-opacity="1"><g transform="translate(407.374837, 956.198422)"><g><path d="M 278.945312 -140.921875 L 287.3125 -140.921875 L 287.3125 -147.679688 L 278.945312 -147.679688 L 278.945312 -167.949219 C 278.945312 -172.128906 278.945312 -176.3125 278.625 -180.171875 L 290.53125 -180.171875 C 290.207031 -187.574219 289.5625 -194.007812 288.597656 -200.441406 L 276.695312 -200.441406 C 275.730469 -205.589844 274.765625 -210.417969 273.800781 -214.921875 C 271.867188 -220.710938 269.9375 -226.183594 267.363281 -231.007812 L 279.914062 -231.007812 C 278.625 -233.261719 277.660156 -235.511719 276.375 -237.765625 L 268.972656 -237.765625 C 267.042969 -240.660156 264.789062 -243.554688 262.539062 -246.128906 C 258.675781 -250.632812 253.851562 -254.496094 248.382812 -257.710938 L 234.867188 -257.710938 C 230.6875 -260.285156 226.183594 -262.214844 221.035156 -263.824219 C 209.773438 -267.6875 195.9375 -269.617188 179.53125 -269.617188 L 112.929688 -269.617188 C 96.519531 -269.617188 82.6875 -267.6875 71.105469 -263.824219 C 66.277344 -262.214844 61.773438 -260.285156 57.589844 -257.710938 L 71.105469 -257.710938 C 65.632812 -254.496094 61.128906 -250.632812 56.949219 -246.128906 C 54.695312 -243.554688 52.441406 -240.660156 50.835938 -237.765625 L 58.234375 -237.765625 C 56.625 -235.511719 55.660156 -233.261719 54.375 -231.007812 L 23.488281 -231.007812 C 20.914062 -226.183594 18.660156 -220.710938 17.050781 -214.921875 C 15.765625 -210.417969 14.800781 -205.589844 14.15625 -200.441406 L 45.6875 -200.441406 C 44.722656 -194.007812 44.078125 -187.574219 43.757812 -180.171875 L 25.417969 -180.171875 C 25.417969 -176.3125 25.09375 -172.128906 25.09375 -167.949219 L 25.09375 -147.679688 L 43.433594 -147.679688 L 43.433594 -140.921875 L 29.601562 -140.921875 L 29.601562 -101.667969 C 29.601562 -97.488281 29.601562 -93.625 29.921875 -89.765625 L 43.757812 -89.765625 C 44.078125 -82.363281 45.042969 -75.929688 46.332031 -69.496094 L 27.347656 -69.496094 C 27.992188 -64.667969 28.957031 -60.164062 30.242188 -55.660156 L 48.261719 -55.660156 C 48.261719 -55.339844 48.261719 -54.695312 48.582031 -54.375 C 50.191406 -47.296875 52.765625 -41.183594 55.660156 -35.714844 L 30.566406 -35.714844 C 33.140625 -30.886719 36.035156 -26.382812 39.574219 -22.84375 C 46.972656 -14.800781 56.304688 -8.6875 68.207031 -5.148438 C 79.792969 -1.609375 93.949219 0.320312 110.679688 0.320312 L 178.886719 0.320312 C 195.9375 0.320312 210.09375 -1.609375 221.675781 -5.148438 C 233.261719 -8.6875 242.914062 -14.800781 250.3125 -22.84375 C 253.851562 -26.382812 256.746094 -30.886719 259.320312 -35.714844 L 278.625 -35.714844 C 281.519531 -41.183594 284.09375 -47.296875 285.703125 -54.375 C 286.023438 -54.695312 286.023438 -55.339844 286.023438 -55.660156 L 274.121094 -55.660156 C 275.40625 -60.164062 276.050781 -64.667969 276.695312 -69.496094 L 288.597656 -69.496094 C 289.5625 -75.929688 290.207031 -82.363281 290.53125 -89.765625 L 278.625 -89.765625 C 278.625 -93.625 278.945312 -97.488281 278.945312 -101.667969 Z M 72.710938 -211.382812 C 74.964844 -213.957031 77.859375 -216.207031 81.398438 -217.816406 L 88.800781 -200.441406 L 66.601562 -200.441406 C 68.207031 -204.625 70.140625 -208.488281 72.710938 -211.382812 Z M 87.835938 -57.914062 C 84.9375 -60.808594 83.007812 -64.992188 81.398438 -69.496094 L 112.285156 -69.496094 C 111.644531 -71.105469 111 -72.390625 110.679688 -74 C 109.710938 -78.503906 108.746094 -83.652344 108.425781 -89.765625 L 83.007812 -89.765625 C 83.007812 -92.660156 82.6875 -96.199219 82.6875 -99.738281 L 82.6875 -140.921875 L 91.375 -140.921875 L 91.375 -147.679688 L 79.46875 -147.679688 L 79.46875 -169.878906 C 79.46875 -173.738281 79.46875 -176.957031 79.792969 -180.171875 L 91.695312 -180.171875 C 91.695312 -185.964844 92.339844 -190.789062 93.304688 -195.296875 C 93.625 -196.902344 93.949219 -198.835938 94.589844 -200.441406 L 114.859375 -200.441406 L 122.902344 -180.171875 L 100.382812 -180.171875 L 113.574219 -147.679688 L 136.417969 -147.679688 L 139.632812 -140.921875 L 123.546875 -140.921875 L 144.460938 -89.765625 L 159.902344 -89.765625 L 167.949219 -69.496094 L 156.042969 -69.496094 L 161.511719 -55.660156 L 173.417969 -55.660156 L 177.277344 -46.652344 L 133.84375 -46.652344 C 125.476562 -46.652344 118.398438 -47.617188 112.929688 -49.226562 C 108.425781 -50.835938 104.886719 -52.765625 101.992188 -55.660156 L 90.085938 -55.660156 C 89.121094 -56.304688 88.476562 -56.949219 87.835938 -57.914062 Z M 226.503906 -51.476562 L 224.894531 -55.660156 L 232.296875 -55.660156 C 230.6875 -54.050781 228.757812 -52.765625 226.503906 -51.476562 Z M 240.980469 -74 C 240.660156 -72.390625 240.339844 -71.105469 240.015625 -69.496094 L 228.113281 -69.496094 C 226.824219 -64.992188 224.894531 -60.808594 222.320312 -57.914062 C 222 -56.949219 221.035156 -56.304688 220.390625 -55.660156 L 212.992188 -55.660156 L 207.519531 -69.496094 L 219.425781 -69.496094 L 211.382812 -89.765625 L 195.9375 -89.765625 L 175.347656 -140.921875 L 206.234375 -140.921875 L 202.695312 -147.679688 L 165.375 -147.679688 L 152.183594 -180.171875 L 175.027344 -180.171875 L 166.980469 -200.441406 L 145.105469 -200.441406 L 135.453125 -222.320312 L 181.460938 -222.320312 C 190.46875 -222.320312 197.867188 -221.675781 203.980469 -219.746094 C 209.773438 -218.136719 214.597656 -215.242188 218.136719 -211.382812 C 220.710938 -208.488281 222.644531 -204.625 223.929688 -200.441406 L 239.695312 -200.441406 C 240.339844 -198.835938 240.660156 -196.902344 240.980469 -195.296875 C 241.945312 -190.789062 242.589844 -185.964844 242.589844 -180.171875 L 231.007812 -180.171875 C 231.007812 -176.957031 231.007812 -173.738281 231.007812 -169.878906 L 231.007812 -147.679688 L 242.914062 -147.679688 L 242.914062 -140.921875 L 231.007812 -140.921875 L 231.007812 -99.738281 C 231.007812 -96.199219 231.007812 -92.660156 231.007812 -89.765625 L 242.914062 -89.765625 C 242.589844 -83.652344 241.945312 -78.503906 240.980469 -74 Z M 220.390625 -190.789062 L 177.277344 -190.789062 L 177.277344 -194.972656 L 220.390625 -194.972656 Z M 130.949219 -59.84375 L 98.453125 -59.84375 L 98.453125 -64.027344 L 130.949219 -64.027344 Z M 107.460938 -109.390625 L 89.121094 -109.390625 L 89.121094 -113.574219 L 107.460938 -113.574219 Z M 107.460938 -109.390625 "/></g></g></g><g fill="rgb(89.408875%, 11.759949%, 6.669617%)" fill-opacity="1"><g transform="translate(722.328634, 956.198422)"><g><path d="M 248.058594 -54.050781 L 156.6875 -54.050781 L 156.6875 -58.234375 L 248.058594 -58.234375 Z M 159.582031 -170.84375 L 67.886719 -170.84375 L 67.886719 -175.027344 L 159.582031 -175.027344 Z M 194.972656 -203.015625 L 151.539062 -203.015625 L 151.539062 -207.199219 L 194.972656 -207.199219 Z M 254.171875 -99.417969 L 210.738281 -99.417969 L 210.738281 -103.921875 L 254.171875 -103.921875 Z M 142.53125 -94.269531 L 99.09375 -94.269531 L 99.09375 -98.453125 L 142.53125 -98.453125 Z M 293.746094 -142.53125 C 298.25 -151.539062 300.824219 -162.476562 301.148438 -175.347656 L 268.007812 -175.347656 C 268.007812 -176.957031 268.328125 -178.242188 268.328125 -179.851562 L 268.328125 -195.296875 L 289.242188 -195.296875 L 289.242188 -206.878906 C 289.242188 -213.632812 288.597656 -220.070312 287.3125 -225.859375 L 266.398438 -225.859375 C 265.753906 -228.433594 265.113281 -230.6875 264.46875 -232.617188 L 282.808594 -232.617188 C 280.234375 -240.015625 276.695312 -246.453125 272.191406 -252.242188 C 271.867188 -252.242188 271.867188 -252.566406 271.546875 -252.886719 L 253.851562 -252.886719 C 243.878906 -263.824219 228.433594 -269.617188 207.84375 -269.617188 L 42.792969 -269.617188 C 37.644531 -269.617188 35.070312 -266.722656 35.070312 -260.929688 L 35.070312 -252.886719 L 62.738281 -252.886719 L 62.738281 -232.617188 L 50.835938 -232.617188 L 50.835938 -231.007812 C 50.835938 -228.757812 51.15625 -227.46875 51.800781 -225.859375 L 72.390625 -225.859375 C 73.355469 -223.609375 75.285156 -222.320312 78.503906 -222.320312 L 224.25 -222.320312 C 230.6875 -222.320312 234.867188 -220.390625 237.441406 -216.53125 C 240.015625 -212.667969 241.304688 -207.199219 241.304688 -200.441406 L 241.304688 -195.296875 L 220.390625 -195.296875 L 220.390625 -179.851562 C 220.390625 -178.242188 220.390625 -176.632812 220.070312 -175.347656 L 249.027344 -175.347656 C 247.738281 -163.765625 241.625 -158.296875 231.007812 -158.296875 L 96.84375 -158.296875 C 77.539062 -158.296875 62.417969 -152.824219 52.121094 -142.53125 L 24.773438 -142.53125 C 24.128906 -142.207031 23.488281 -141.566406 22.84375 -140.921875 C 21.554688 -139.3125 20.269531 -137.703125 18.984375 -136.09375 L 46.972656 -136.09375 C 40.21875 -124.835938 36.679688 -110.355469 36.679688 -92.015625 L 36.679688 -84.617188 L 30.566406 -84.617188 L 30.566406 -64.667969 L 24.773438 -64.667969 L 24.773438 -50.835938 L 36.679688 -50.835938 L 36.679688 -32.496094 C 36.679688 -31.851562 36.679688 -31.53125 36.679688 -30.886719 L 16.085938 -30.886719 C 16.410156 -20.589844 18.660156 -12.546875 22.84375 -7.722656 C 27.347656 -2.574219 35.070312 0.320312 46.007812 0.320312 L 251.921875 0.320312 C 256.746094 0.320312 259.320312 -2.574219 259.320312 -8.363281 L 259.320312 -30.886719 L 279.589844 -30.886719 L 279.589844 -38.609375 C 279.589844 -44.398438 277.339844 -47.296875 272.191406 -47.296875 L 90.730469 -47.296875 C 87.835938 -47.296875 85.902344 -48.582031 84.9375 -50.835938 L 73.355469 -50.835938 C 72.710938 -52.121094 72.390625 -53.410156 72.390625 -55.339844 L 72.390625 -64.667969 L 101.347656 -64.667969 L 101.347656 -84.617188 L 84.296875 -84.617188 L 84.296875 -92.015625 C 84.296875 -106.496094 89.765625 -113.894531 101.027344 -113.894531 L 223.609375 -113.894531 C 242.269531 -113.894531 256.425781 -119.6875 265.753906 -130.949219 C 267.042969 -132.554688 268.328125 -134.164062 269.617188 -136.09375 L 257.390625 -136.09375 C 258.675781 -138.027344 259.964844 -140.277344 261.25 -142.53125 Z M 293.746094 -142.53125 "/></g></g></g><g fill="rgb(89.408875%, 11.759949%, 6.669617%)" fill-opacity="1"><g transform="translate(1033.421881, 956.198422)"><g><path d="M 248.058594 -54.050781 L 156.6875 -54.050781 L 156.6875 -58.234375 L 248.058594 -58.234375 Z M 159.582031 -170.84375 L 67.886719 -170.84375 L 67.886719 -175.027344 L 159.582031 -175.027344 Z M 194.972656 -203.015625 L 151.539062 -203.015625 L 151.539062 -207.199219 L 194.972656 -207.199219 Z M 254.171875 -99.417969 L 210.738281 -99.417969 L 210.738281 -103.921875 L 254.171875 -103.921875 Z M 142.53125 -94.269531 L 99.09375 -94.269531 L 99.09375 -98.453125 L 142.53125 -98.453125 Z M 293.746094 -142.53125 C 298.25 -151.539062 300.824219 -162.476562 301.148438 -175.347656 L 268.007812 -175.347656 C 268.007812 -176.957031 268.328125 -178.242188 268.328125 -179.851562 L 268.328125 -195.296875 L 289.242188 -195.296875 L 289.242188 -206.878906 C 289.242188 -213.632812 288.597656 -220.070312 287.3125 -225.859375 L 266.398438 -225.859375 C 265.753906 -228.433594 265.113281 -230.6875 264.46875 -232.617188 L 282.808594 -232.617188 C 280.234375 -240.015625 276.695312 -246.453125 272.191406 -252.242188 C 271.867188 -252.242188 271.867188 -252.566406 271.546875 -252.886719 L 253.851562 -252.886719 C 243.878906 -263.824219 228.433594 -269.617188 207.84375 -269.617188 L 42.792969 -269.617188 C 37.644531 -269.617188 35.070312 -266.722656 35.070312 -260.929688 L 35.070312 -252.886719 L 62.738281 -252.886719 L 62.738281 -232.617188 L 50.835938 -232.617188 L 50.835938 -231.007812 C 50.835938 -228.757812 51.15625 -227.46875 51.800781 -225.859375 L 72.390625 -225.859375 C 73.355469 -223.609375 75.285156 -222.320312 78.503906 -222.320312 L 224.25 -222.320312 C 230.6875 -222.320312 234.867188 -220.390625 237.441406 -216.53125 C 240.015625 -212.667969 241.304688 -207.199219 241.304688 -200.441406 L 241.304688 -195.296875 L 220.390625 -195.296875 L 220.390625 -179.851562 C 220.390625 -178.242188 220.390625 -176.632812 220.070312 -175.347656 L 249.027344 -175.347656 C 247.738281 -163.765625 241.625 -158.296875 231.007812 -158.296875 L 96.84375 -158.296875 C 77.539062 -158.296875 62.417969 -152.824219 52.121094 -142.53125 L 24.773438 -142.53125 C 24.128906 -142.207031 23.488281 -141.566406 22.84375 -140.921875 C 21.554688 -139.3125 20.269531 -137.703125 18.984375 -136.09375 L 46.972656 -136.09375 C 40.21875 -124.835938 36.679688 -110.355469 36.679688 -92.015625 L 36.679688 -84.617188 L 30.566406 -84.617188 L 30.566406 -64.667969 L 24.773438 -64.667969 L 24.773438 -50.835938 L 36.679688 -50.835938 L 36.679688 -32.496094 C 36.679688 -31.851562 36.679688 -31.53125 36.679688 -30.886719 L 16.085938 -30.886719 C 16.410156 -20.589844 18.660156 -12.546875 22.84375 -7.722656 C 27.347656 -2.574219 35.070312 0.320312 46.007812 0.320312 L 251.921875 0.320312 C 256.746094 0.320312 259.320312 -2.574219 259.320312 -8.363281 L 259.320312 -30.886719 L 279.589844 -30.886719 L 279.589844 -38.609375 C 279.589844 -44.398438 277.339844 -47.296875 272.191406 -47.296875 L 90.730469 -47.296875 C 87.835938 -47.296875 85.902344 -48.582031 84.9375 -50.835938 L 73.355469 -50.835938 C 72.710938 -52.121094 72.390625 -53.410156 72.390625 -55.339844 L 72.390625 -64.667969 L 101.347656 -64.667969 L 101.347656 -84.617188 L 84.296875 -84.617188 L 84.296875 -92.015625 C 84.296875 -106.496094 89.765625 -113.894531 101.027344 -113.894531 L 223.609375 -113.894531 C 242.269531 -113.894531 256.425781 -119.6875 265.753906 -130.949219 C 267.042969 -132.554688 268.328125 -134.164062 269.617188 -136.09375 L 257.390625 -136.09375 C 258.675781 -138.027344 259.964844 -140.277344 261.25 -142.53125 Z M 293.746094 -142.53125 "/></g></g></g></svg>