<?xml version="1.0" encoding="UTF-8" standalone="no"?>
<svg
   xmlns:dc="http://purl.org/dc/elements/1.1/"
   xmlns:cc="http://creativecommons.org/ns#"
   xmlns:rdf="http://www.w3.org/1999/02/22-rdf-syntax-ns#"
   xmlns:svg="http://www.w3.org/2000/svg"
   xmlns="http://www.w3.org/2000/svg"
   xmlns:sodipodi="http://sodipodi.sourceforge.net/DTD/sodipodi-0.dtd"
   xmlns:inkscape="http://www.inkscape.org/namespaces/inkscape"
   version="1.1"
   id="layer"
   x="0px"
   y="0px"
   viewBox="0 0 679.70001 500.20001"
   xml:space="preserve"
   sodipodi:docname="politecnico-di-milano-vector-logo_black1.svg"
   inkscape:version="1.0.1 (3bc2e813f5, 2020-09-07)"
   width="679.70001"
   height="500.20001"><metadata
   id="metadata86"><rdf:RDF><cc:Work
       rdf:about=""><dc:format>image/svg+xml</dc:format><dc:type
         rdf:resource="http://purl.org/dc/dcmitype/StillImage" /><dc:title></dc:title></cc:Work></rdf:RDF></metadata><defs
   id="defs84" /><sodipodi:namedview
   pagecolor="#ffffff"
   bordercolor="#666666"
   borderopacity="1"
   objecttolerance="10"
   gridtolerance="10"
   guidetolerance="10"
   inkscape:pageopacity="0"
   inkscape:pageshadow="2"
   inkscape:window-width="1920"
   inkscape:window-height="986"
   id="namedview82"
   showgrid="false"
   inkscape:zoom="1.6328077"
   inkscape:cx="308.88208"
   inkscape:cy="114.24014"
   inkscape:window-x="-11"
   inkscape:window-y="-11"
   inkscape:window-maximized="1"
   inkscape:current-layer="layer" />
<style
   type="text/css"
   id="style49">
	.st0{fill:#FFFFFF;}
	.st1{fill:#CAD9E3;}
	.st2{fill:#6DA4BA;}
</style>
<path
   class="st0"
   d="M 485.6,162.2 C 480.8,242.6 411.7,303.8 331.3,299 250.9,294.2 189.6,225.1 194.5,144.7 199.3,64.3 268.4,3.1 348.8,7.9 c 79.4,4.8 140.2,72.3 137,151.4"
   id="path51"
   style="fill:none" />
<path
   class="st1"
   d="m 339.5,291.7 2.5,-0.1 0.1,13.5 h -2.5 z m -7.1,13.4 0.6,-13.5 2.5,0.1 -0.5,13.5 z m 13.5,-13.5 2.5,-0.1 0.8,13.5 -2.5,0.2 z m -20.5,13 1,-13.5 2.6,0.2 -1.1,13.5 z m 27,-13.5 2.5,-0.3 1.3,13.5 -2.5,0.2 z m -34.1,12.7 1.8,-13.4 2.5,0.3 -1.7,13.4 z m 40.5,-13.4 2.5,-0.4 2,13.4 -2.4,0.3 z m -47.5,12.3 2.4,-13.3 2.6,0.4 -2.5,13.3 z m 53.9,-13.4 2.5,-0.5 2.7,13.3 -2.5,0.4 z m -60.8,11.9 2.9,-13.2 2.5,0.6 -2.9,13.2 z m 67.1,-13.2 2.5,-0.6 3.3,13.1 -2.5,0.6 z m -74,11.5 3.5,-13 2.5,0.6 -3.6,13 z m 80.4,-13.2 2.4,-0.7 3.8,13 -2.4,0.7 z m -87.2,11 4.2,-12.8 2.4,0.8 -4.2,12.9 z m 93.3,-13 2.4,-0.8 4.4,12.8 -2.4,0.8 z m -100,10.6 4.9,-12.6 2.4,0.9 -4.9,12.6 z m 106.1,-12.8 2.3,-1 5.1,12.5 -2.4,1 z m -112.7,10.1 5.3,-12.4 2.4,1 -5.3,12.4 z m 118.7,-12.6 2.3,-1.1 5.6,12.2 -2.3,1.1 z m -125.1,9.5 5.9,-12.1 2.3,1.1 -5.9,12.2 z m 130.9,-12.2 2.3,-1.2 6.2,12 -2.2,1.2 z m -137.2,8.9 6.5,-11.8 2.2,1.2 -6.5,11.9 z m 142.9,-12 2.2,-1.3 6.8,11.7 -2.2,1.3 z m -149,8.4 7.1,-11.5 2.2,1.3 -7.1,11.6 z m 154.6,-11.7 2.1,-1.4 7.4,11.3 -2.1,1.4 z m -160.6,7.8 7.6,-11.1 2.1,1.4 -7.6,11.1 z m 166,-11.5 2.1,-1.5 7.8,11.1 -2.1,1.5 z m -171.7,7.3 8.2,-10.8 2,1.5 -8.1,10.8 z m 177,-11.1 2,-1.6 8.3,10.7 -2,1.6 z m -182.6,6.7 8.5,-10.5 2,1.6 -8.5,10.5 z m 187.6,-10.8 1.9,-1.6 8.7,10.2 -1.9,1.6 z M 236,265 l 9,-10 1.9,1.7 -9,10 z m 197.7,-10.3 1.9,-1.7 9.3,9.8 -1.9,1.7 z m -202.9,5.4 9.5,-9.7 1.8,1.8 -9.5,9.6 z m 207.6,-9.9 1.8,-1.8 9.7,9.4 -1.8,1.8 z m -212.4,4.7 10,-9.1 1.7,1.9 -9.9,9.1 z m 216.8,-9.5 1.7,-1.9 10.1,8.9 -1.7,1.9 z m -221.5,4.1 10.4,-8.7 1.6,1.9 -10.3,8.7 z m 225.7,-9 1.6,-2 10.6,8.4 -1.6,2 z m -230.1,3.4 10.8,-8.1 1.5,2 -10.8,8.2 z m 234.1,-8.5 1.5,-2.1 11,7.8 -1.5,2.1 z m -238.2,2.6 11.1,-7.6 1.5,2.1 -11.2,7.6 z m 242,-8 1.4,-2.1 11.3,7.6 -1.4,2.1 z m -245.9,2.1 11.5,-7.1 1.3,2.2 -11.5,7.1 z m 249.4,-7.5 1.3,-2.2 11.6,6.9 -1.3,2.2 z m -252.9,1.4 11.8,-6.7 1.2,2.2 -11.7,6.7 z m 256.1,-7 1.2,-2.3 11.9,6.4 -1.2,2.2 z m -259.4,0.7 12.1,-6.1 1.1,2.2 -12.1,6.1 z m 262.3,-6.5 1.1,-2.3 12.2,5.8 -1.1,2.3 z m -265.3,0 12.3,-5.6 1.1,2.3 -12.4,5.5 z m 268,-5.8 1,-2.4 12.5,5.1 -0.9,2.4 z m -270.6,-0.8 12.6,-4.9 0.9,2.4 -12.6,4.9 z m 273,-5.3 0.9,-2.4 12.7,4.6 -0.8,2.4 z m -275.4,-1.4 12.8,-4.2 0.8,2.4 -12.8,4.3 z m 277.6,-4.7 0.8,-2.4 12.9,4.1 -0.8,2.4 z m -279.6,-2.2 13,-3.6 0.7,2.4 -13,3.6 z m 281.4,-4 0.6,-2.5 13.1,3.4 -0.7,2.4 z m -283.1,-2.9 13.1,-3 0.6,2.4 -13.2,3 z m 284.6,-3.4 0.5,-2.5 13.2,2.7 -0.5,2.5 z m -286.1,-3.5 13.3,-2.5 0.5,2.5 -13.3,2.5 z m 287.4,-2.8 0.4,-2.5 13.4,2.1 -0.4,2.5 z m -288.4,-4.2 13.3,-1.9 0.4,2.5 -13.3,1.8 z m 289.3,-2.3 0.3,-2.6 13.4,1.6 -0.3,2.5 z m -290.1,-4.9 13.5,-1.1 0.2,2.5 -13.4,1.2 z m 290.8,-1.6 0.2,-2.5 13.5,0.9 -0.2,2.5 z m -291.2,-5.4 13.5,-0.6 0.1,2.5 -13.4,0.6 z m 291.5,0.3 0.1,-2.5 13.5,0.4 -0.1,2.6 z m -291.5,-4.9 v -2.5 h 13.5 v 2.5 z m 291.6,-4.1 13.5,-0.2 v 2.5 l -13.5,0.2 z m -291.5,-3 0.1,-2.6 13.5,0.7 -0.1,2.5 z m 291.2,-3.4 13.5,-0.9 0.2,2.5 -13.5,0.9 z m -290.8,-3.7 0.3,-2.5 13.4,1.2 -0.2,2.5 z m 290.2,-2.8 13.4,-1.4 0.3,2.5 -13.5,1.4 z m -289.4,-4.3 0.3,-2.5 13.4,1.9 -0.3,2.5 z m 288.5,-2.2 13.4,-2 0.3,2.5 -13.4,2 z m -287.3,-4.8 0.5,-2.4 13.3,2.6 -0.5,2.5 z m 286.1,-1.5 13.2,-2.7 0.5,2.5 -13.2,2.7 z m -284.7,-5.4 0.6,-2.5 13.1,3.1 -0.6,2.4 z m 283.2,-0.9 13.1,-3.4 0.6,2.4 -13.1,3.4 z m -281.5,-6 0.7,-2.5 13,3.7 -0.7,2.4 z m 279.7,-0.2 12.9,-3.9 0.8,2.4 -12.9,4 z m -277.5,-6.6 0.8,-2.4 12.8,4.4 -0.8,2.4 z m 275.4,0.4 12.8,-4.4 0.8,2.4 -12.8,4.5 z m -273,-7.2 0.9,-2.4 12.6,5 -0.9,2.3 z m 270.6,1.1 12.5,-5 1,2.3 -12.5,5.1 z m -267.9,-7.7 1,-2.3 12.3,5.7 -1.1,2.3 z m 265.3,1.9 12.3,-5.7 1.1,2.3 -12.2,5.7 z m -262.3,-8.2 1.1,-2.2 12.1,6.1 -1.1,2.2 z m 259.3,2.4 12,-6.2 1.2,2.2 -12,6.3 z m -256,-8.7 1.2,-2.2 11.8,6.7 -1.3,2.2 z m 252.8,3 11.7,-6.8 1.3,2.1 -11.6,6.8 z m -249.2,-9.2 1.3,-2.1 11.5,7.2 -1.4,2.1 z m 245.8,3.8 11.3,-7.4 1.4,2.1 -11.3,7.3 z m -241.9,-9.7 1.5,-2.1 11,7.8 -1.4,2.1 z m 238.2,4.3 11,-7.9 1.5,2.1 -11,7.9 z m -234,-10.1 1.6,-2 10.7,8.3 -1.6,2 z m 230.1,5 10.6,-8.4 1.6,2 -10.6,8.4 z M 222,55 l 1.6,-1.9 10.3,8.8 -1.6,1.9 z m 221.5,5.6 10.2,-8.8 1.7,1.9 -10.2,8.9 z m -216.8,-11 1.7,-1.9 9.8,9.3 -1.7,1.9 z m 212.4,6.3 9.8,-9.3 1.8,1.8 -9.8,9.3 z m -207.5,-11.3 1.8,-1.8 9.5,9.6 -1.8,1.8 z m 202.9,6.8 9.3,-9.8 1.8,1.8 -9.3,9.8 z m -197.8,-11.7 1.9,-1.7 9,10 -1.9,1.7 z m 192.9,7.3 8.8,-10.2 1.9,1.6 -8.8,10.3 z m -187.5,-12 2,-1.6 8.5,10.5 -2,1.6 z m 182.5,7.8 8.5,-10.5 1.9,1.6 -8.4,10.5 z m -176.9,-12.2 2.1,-1.5 8,10.9 -2,1.5 z m 171.7,8.4 8,-10.9 2,1.5 -8,10.9 z m -165.9,-12.5 2.1,-1.4 7.5,11.2 -2.2,1.4 z m 160.5,8.9 7.5,-11.3 2.1,1.4 -7.4,11.3 z m -154.5,-12.8 2.1,-1.3 6.9,11.6 -2.1,1.3 z m 149,9.4 6.8,-11.6 2.2,1.2 -6.9,11.6 z m -142.9,-13 2.2,-1.2 6.4,11.9 -2.2,1.2 z m 137.2,10 6.3,-12 2.2,1.2 -6.3,12 z M 272,15.7 l 2.3,-1.1 5.8,12.2 -2.3,1.1 z m 124.9,10.4 5.8,-12.2 2.3,1.1 -5.7,12.2 z m -118.6,-13.4 2.3,-1 5.4,12.4 -2.3,1 z m 112.7,10.9 5.1,-12.5 2.3,1 -5.1,12.5 z m -106.1,-13.5 2.4,-0.9 4.7,12.7 -2.3,0.9 z m 100,11.2 4.5,-12.7 2.4,0.8 -4.5,12.7 z m -93.2,-13.6 2.4,-0.8 4.1,12.9 -2.4,0.7 z m 87.1,11.6 3.9,-13 2.4,0.7 -3.9,13 z M 298.5,5.6 300.9,5 l 3.5,13.1 -2.4,0.6 z m 74,12 3.4,-13 2.4,0.6 -3.3,13.1 z m -67.1,-13.7 2.5,-0.6 2.8,13.2 -2.4,0.5 z m 60.8,12.3 2.7,-13.2 2.5,0.5 -2.7,13.2 z m -53.9,-13.7 2.5,-0.4 2.3,13.3 -2.5,0.4 z m 47.5,12.7 2.1,-13.3 2.5,0.3 -2.1,13.3 z m -40.4,-13.8 2.5,-0.3 1.7,13.4 -2.5,0.3 z m 33.9,12.9 1.5,-13.4 2.5,0.3 -1.5,13.5 z M 326.4,0.7 329,0.5 l 1,13.5 -2.5,0.2 z m 20.4,13.1 0.9,-13.5 2.5,0.2 -0.9,13.5 z m -13.2,-13.6 2.5,-0.1 0.3,13.5 h -2.5 z m 6.8,13.4 0.2,-13.6 h 2.6 L 343,13.6 Z"
   id="path53"
   style="fill:#000000" />
<path
   class="st2"
   d="m 535.2,493.5 c 1.7,1.9 6,6.6 15.1,6.6 10.1,0 16.6,-6 16.6,-14 0,-6.3 -5.4,-10.7 -8.9,-12.2 v -0.2 c 3.3,-1.5 7.6,-5.9 7.6,-11.5 0,-8.2 -6.8,-13.4 -15.3,-13.4 -8,0 -13.6,6.4 -13.6,6.4 -0.5,0.6 -0.6,1.4 0,1.9 l 2.7,2.4 c 0.6,0.6 1.5,0.4 1.9,-0.2 1.5,-1.6 4.1,-4.1 8.5,-4.1 4.4,0 8.4,3.1 8.4,8 0,4.3 -3.5,7.8 -10.3,7.8 h -4.1 c -1,0 -1.5,0.5 -1.5,1.6 v 3.2 c 0,1 0.6,1.5 1.4,1.5 h 4.1 c 7.9,0 11.6,4.2 11.6,8.6 0,4.9 -4.4,7.9 -9.2,7.9 -5.5,0 -9.5,-3.9 -10,-4.5 -0.6,-0.7 -1.3,-0.7 -2,-0.1 l -2.9,2.7 c -0.5,0.3 -0.5,1.1 -0.1,1.6 m -21.9,0 c -8,0 -10.7,-8.4 -10.1,-14.5 0.4,-1.3 4.2,-5.6 10,-5.6 5.5,0 9.8,4.5 9.8,10 -0.1,5.5 -4.3,10.1 -9.7,10.1 m -17.3,-14 c 0,11.3 5.6,20.5 17.3,20.5 8.9,0 16.4,-7.6 16.4,-16.8 0,-10.1 -7.6,-15.9 -15.4,-15.9 -4.9,0 -9.2,2.4 -9.7,2.7 2.4,-9 14.1,-15.1 17.5,-16.2 1.4,-0.4 1.7,-1.2 1.3,-2.1 l -1.2,-3 c -0.3,-0.8 -1,-1.1 -1.9,-0.9 -6.8,2.6 -24.3,11.2 -24.3,31.7 m -33.8,6.7 c 0,-3.9 3.4,-8 9.3,-8.8 6,0.9 9.3,4.9 9.3,8.8 0,4.9 -4.2,8 -9.4,8 -4.8,-0.1 -9.2,-3.2 -9.2,-8 m 9.3,-15.9 c -5.7,-0.9 -8.2,-3.9 -8.2,-7.8 0,-4.5 3.6,-7.7 8,-7.7 4.8,0 8.4,3.2 8.4,7.7 0,3.8 -2.5,7 -8.2,7.8 m -17,15.7 c 0,8 6.5,14.1 16.8,14.1 10.7,0 17.1,-6.1 17.1,-14.1 0,-6.3 -5.5,-10.7 -8.9,-12.3 v -0.2 c 3.2,-1.6 7.5,-5.7 7.5,-11.3 0,-8.1 -6.7,-13.4 -15.7,-13.4 -8.8,0 -15.6,5.4 -15.6,13.4 0,5.7 4.4,9.8 7.6,11.4 v 0.2 c -2.6,1.1 -8.8,5.8 -8.8,12.2 m -35.1,13.3 h 25.5 c 0.8,0 1.4,-0.6 1.4,-1.3 v -3.2 c 0,-0.8 -0.6,-1.4 -1.4,-1.4 h -8.1 v -42.6 c 0,-0.7 -0.6,-1.4 -1.3,-1.4 h -3.6 l -10.9,9.8 c -0.3,0.3 -0.4,0.9 -0.2,1.5 l 0.9,2.6 c 0.2,0.6 1,0.8 1.6,0.5 l 6.4,-3.2 v 32.9 h -10.2 c -0.8,0 -1.4,0.6 -1.4,1.4 v 3.2 c -0.2,0.6 0.4,1.2 1.3,1.2 m -66.9,-25.6 c 0,-10.4 8.6,-19.2 19,-19.2 10.5,0 19.1,8.8 19.1,19.2 0,10.5 -8.6,19 -19.1,19 -10.4,0 -19,-8.5 -19,-19 m -7.3,0 c 0,14.7 11.6,26.4 26.3,26.4 14.6,0 26.4,-11.7 26.4,-26.4 0,-14.7 -11.8,-26.5 -26.4,-26.5 -14.7,0 -26.3,11.8 -26.3,26.5 M 292,497.9 c 0,0.8 0.7,1.4 1.4,1.4 h 4.6 c 0.8,0 1.4,-0.6 1.4,-1.4 v -35.7 h 0.1 l 31.8,37.9 h 1.9 c 0.7,0 1.4,-0.6 1.4,-1.3 v -49.4 c 0,-0.7 -0.7,-1.4 -1.4,-1.4 h -4.7 c -0.8,0 -1.4,0.6 -1.4,1.4 v 34.7 H 327 l -31.8,-36.8 h -1.8 c -0.7,0 -1.4,0.6 -1.4,1.3 z m -40.6,-16 9,-20.1 h 0.4 l 9,20.1 z m -13.6,17.4 h 4.7 c 0.9,0 1.5,-0.6 1.7,-1.1 1.5,-3.4 3,-6.7 4.5,-10.1 h 24 l 4.5,10.1 c 0.2,0.7 0.8,1.1 1.7,1.1 h 4.6 c 1.1,0 1.7,-0.9 1.2,-1.9 l -22.4,-49.3 c -0.2,-0.5 -0.8,-0.8 -1.2,-0.8 h -0.8 c -0.3,0 -1,0.3 -1.2,0.8 l -22.5,49.3 c -0.5,1 0.1,1.9 1.2,1.9 m -34.6,-1.4 c 0,0.8 0.6,1.4 1.4,1.4 h 26.1 c 0.8,0 1.4,-0.6 1.4,-1.4 v -4.1 c 0,-0.7 -0.6,-1.4 -1.4,-1.4 h -19.9 v -43.2 c 0,-0.7 -0.7,-1.4 -1.4,-1.4 h -4.8 c -0.8,0 -1.4,0.6 -1.4,1.4 z m -21.9,0 c 0,0.8 0.7,1.4 1.4,1.4 h 4.8 c 0.7,0 1.4,-0.6 1.4,-1.4 v -48.6 c 0,-0.7 -0.7,-1.4 -1.4,-1.4 h -4.8 c -0.7,0 -1.4,0.6 -1.4,1.4 z m -67.2,-0.2 c -0.2,1.1 0.4,1.7 1.4,1.7 h 4.7 c 0.6,0 1.2,-0.5 1.3,-1 l 5.3,-32.8 h 0.3 l 13.3,33.8 c 0.1,0.4 0.7,0.8 1.2,0.8 h 1.3 c 0.7,0 1.1,-0.4 1.2,-0.8 l 13.2,-33.8 h 0.2 l 5.4,32.8 c 0.2,0.5 0.8,1 1.4,1 h 4.7 c 1.1,0 1.6,-0.6 1.4,-1.7 l -9,-49.3 c -0.1,-0.6 -0.7,-1.1 -1.3,-1.1 h -1.2 c -0.5,0 -1.1,0.3 -1.3,0.8 l -15.1,37.4 h -0.3 l -15.3,-37.4 c -0.2,-0.5 -0.8,-0.8 -1.3,-0.8 h -1.1 c -0.6,0 -1.2,0.5 -1.4,1.1 z"
   id="path55"
   style="fill:#000000" />
<path
   class="st2"
   d="m 617.9,376.6 c 0,-13.2 10.8,-24.2 24,-24.2 13.2,0 24.1,11 24.1,24.2 0,13.2 -10.9,24 -24.1,24 -13.2,0 -24,-10.8 -24,-24 m -13.6,0 c 0,20.9 16.7,37.6 37.6,37.6 20.9,0 37.8,-16.7 37.8,-37.6 0,-21 -16.8,-37.9 -37.8,-37.9 -21,0 -37.6,16.9 -37.6,37.9 m -73.1,0 c 0,20.9 16.9,37.6 37.8,37.6 9.4,0 18.4,-3.3 25.5,-10.2 0.8,-0.7 1,-2.1 0.1,-2.8 l -6.5,-6.7 c -0.6,-0.6 -1.7,-0.8 -2.6,0 -4.4,3.5 -9.8,5.9 -16.1,5.9 -13.4,0 -23.5,-11.1 -23.5,-24.2 0,-13.2 10,-24.4 23.4,-24.4 5.9,0 11.7,2.3 16.1,6.2 0.8,0.8 1.9,0.8 2.6,0 l 6.4,-6.6 c 0.8,-0.8 0.8,-2.1 -0.1,-2.9 -7.1,-6.4 -14.7,-9.8 -25.4,-9.8 -20.8,0 -37.7,16.9 -37.7,37.9 m -27.5,34.6 c 0,1.1 1,1.9 2,1.9 h 9.8 c 1,0 2,-0.9 2,-1.9 v -69.4 c 0,-1.1 -0.9,-2 -2,-2 h -9.8 c -1.1,0 -2,1 -2,2 z m -79.9,0 c 0,1.1 0.9,1.9 2,1.9 h 9.6 c 1.1,0 2,-0.9 2,-1.9 v -45.1 h 0.1 l 43.8,48.1 h 2.5 c 1,0 1.9,-0.8 1.9,-1.9 v -70.5 c 0,-1.1 -0.9,-2 -1.9,-2 h -9.7 c -1.2,0 -2,1 -2,2 v 43.3 H 472 l -43.6,-46.3 h -2.6 c -1.1,0 -2,0.8 -2,1.9 z m -77.3,-34.6 c 0,20.9 16.9,37.6 37.9,37.6 9.3,0 18.3,-3.3 25.5,-10.2 0.8,-0.7 0.9,-2.1 0.1,-2.8 l -6.5,-6.7 c -0.6,-0.6 -1.8,-0.8 -2.6,0 -4.4,3.5 -9.8,5.9 -16.1,5.9 -13.4,0 -23.5,-11.1 -23.5,-24.2 0,-13.2 10,-24.4 23.4,-24.4 5.9,0 11.7,2.3 16.1,6.2 0.8,0.8 1.9,0.8 2.6,0 l 6.4,-6.6 c 0.8,-0.8 0.8,-2.1 -0.1,-2.9 -7.1,-6.4 -14.8,-9.8 -25.4,-9.8 -20.9,0 -37.8,16.9 -37.8,37.9 m -57.3,34.6 c 0,1.1 0.8,1.9 1.9,1.9 h 42.8 c 1.2,0 2,-0.9 2,-1.9 v -8.6 c 0,-1.1 -0.8,-2 -2,-2 h -31 v -18.4 h 25.9 c 1.1,0 2,-0.8 2,-2 v -8.7 c 0,-1.1 -1,-2 -2,-2 h -25.9 v -17.2 h 31 c 1.2,0 2,-0.9 2,-2 v -8.5 c 0,-1.1 -0.8,-2 -2,-2 h -42.7 c -1.1,0 -1.9,1 -1.9,2 v 69.4 z m -43.7,0 c 0,1.1 1,1.9 2,1.9 h 9.7 c 1,0 2,-0.9 2,-1.9 v -58.8 h 16.1 c 1.2,0 2,-0.9 2,-2 v -8.5 c 0,-1.1 -0.8,-2 -2,-2 h -45.8 c -1.1,0 -2,1 -2,2 v 8.5 c 0,1.1 0.9,2 2,2 h 16.1 v 58.8 z m -45,0 c 0,1.1 0.9,1.9 2,1.9 h 9.8 c 1,0 2,-0.9 2,-1.9 v -69.4 c 0,-1.1 -0.9,-2 -2,-2 h -9.8 c -1.1,0 -2,1 -2,2 z m -56,0 c 0,1.1 0.8,1.9 2,1.9 h 38.4 c 1.1,0 2,-0.9 2,-1.9 v -8.6 c 0,-1.1 -0.9,-2 -2,-2 h -26.7 v -58.8 c 0,-1.1 -0.9,-2 -2,-2 h -9.6 c -1.1,0 -2,1 -2,2 v 69.4 z M 71.8,376.6 c 0,-13.2 10.8,-24.2 24,-24.2 13.2,0 24.1,11 24.1,24.2 0,13.2 -10.9,24 -24.1,24 -13.3,0 -24,-10.8 -24,-24 m -13.7,0 c 0,20.9 16.7,37.6 37.7,37.6 20.9,0 37.7,-16.7 37.7,-37.6 0,-21 -16.8,-37.9 -37.7,-37.9 -21,0 -37.7,16.9 -37.7,37.9 m -44.4,-2.9 v -21.1 h 12.1 c 5.9,0 10.8,4.4 10.8,10.2 0,6.2 -4.9,10.9 -10.8,10.9 z M 0.1,411.2 c 0,1.1 0.8,1.9 2,1.9 h 9.7 c 1.1,0 2,-0.9 2,-1.9 v -24.7 h 13 c 12.8,0 23.3,-10.6 23.3,-23.6 0,-12.7 -10.5,-23.2 -23.4,-23.2 H 2 c -1.1,0 -2,1 -2,2 v 69.5 z"
   id="path57"
   style="fill:#000000" />
<polygon
   class="st2"
   points="394.2,285.1 394.3,285.1 "
   id="polygon59"
   transform="translate(17.9,-71.5)" />
<path
   class="st2"
   d="m 379.7,131.5 -6,1.3 c -0.4,0.1 -0.6,0.4 -0.5,0.8 0.1,0.4 0.4,0.6 0.8,0.5 l 2.1,-0.4 0.5,0.6 c 0.1,0.1 0.4,0.2 0.5,0.2 0.2,0 0.4,-0.1 0.5,-0.2 0.3,-0.3 0.3,-0.7 0.1,-1 v 0 l 2.3,-0.5 c 0.4,-0.1 0.6,-0.4 0.6,-0.8 -0.1,-0.3 -0.4,-0.6 -0.9,-0.5"
   id="path61"
   style="fill:#000000" />
<path
   class="st2"
   d="m 455.7,219.7 c -2.3,-0.3 -5.4,-8 -5.2,-15.3 0,-1.9 0.2,-3.9 0.6,-5.6 1.7,-7.1 6.6,-24.2 6.6,-44.5 0,-4.4 -0.2,-8.9 -0.7,-13.5 -1.6,-13.5 -3.4,-23.4 -6.3,-30.6 v 0 c 1.4,-2 2.7,-4.4 2.7,-6.6 0,-4.4 -3.7,-11.3 -11.2,-11.3 -0.7,0 -1.4,0.1 -2.1,0.2 l -4.7,1.4 c -3.9,-2.9 -7.6,-3.2 -10.1,-3.2 -0.6,0 -1.1,0 -1.5,0 -0.8,0 -1.3,-0.1 -1.5,-0.2 -0.1,0 -1.6,-0.7 -3.7,-0.7 -0.5,0 -1,0.1 -1.6,0.2 h -0.1 c -2.2,-0.4 -4.3,-0.5 -6.4,-0.5 -2.2,0 -4.2,0.1 -6.3,0.4 -0.3,-0.5 -1.6,-2.5 -4.5,-4.7 v -0.9 c -0.1,-2.4 -2.4,-6.2 -2.4,-6.2 -5.9,-9.9 -15,-13.5 -16.1,-14 0.3,-1.2 0.6,-3.4 0.6,-4.5 0,-0.2 0,-0.3 0,-0.5 h -0.3 0.3 c 0,-0.3 0.5,-1.4 0.7,-2.6 0,0 0,-0.1 0,-0.3 -0.1,-1.7 -1.9,-5 -2.9,-7.2 -1.2,-2.4 -4,-2.7 -4.9,-2.8 -2.6,-2.5 -6.4,-2.8 -8.3,-2.8 -0.7,0 -1.2,0 -1.2,0 -0.2,0.1 -4.9,1.1 -6,2 -0.5,0.4 -1.8,1.7 -3,3 -1.4,-0.8 -2.9,-1.2 -4.2,-1.2 -3.3,0 -5.7,1.8 -6.1,2 0,-0.1 -2.5,0.2 -4,0.5 -1.8,0.2 -3.3,1 -6.9,5.4 -1.8,2.1 -2.3,4.2 -2.3,5.9 0,1.6 0.5,2.8 0.7,3.2 -1.6,0.5 -3,1.6 -3.8,2.3 -1.3,1.3 -1.4,4.4 -1.4,5.5 -0.2,0 -0.4,0 -0.5,0 -3,0.2 -5.6,1.8 -5.6,1.9 0,0.2 -2.1,0.4 -2.6,2 0,0.2 0.1,0.4 0.1,0.4 0.2,0.6 1.3,1.8 3.3,1.8 h 0.1 c 1.5,0.1 2.2,-0.4 2.4,-0.8 0.1,0 0.1,0 0.1,-0.1 0.6,0.8 4.7,4.6 4.8,4.6 0.1,0.1 1.6,1.1 3.7,1.1 0.9,0 2,-0.2 3,-0.9 1.6,-1.3 3.7,-0.9 4.5,-2.7 0.7,-0.1 2.4,-0.5 3.5,-1.1 0.4,-0.2 1,-0.6 1.4,-1.2 v 0 c 0.1,-0.2 2,-2.2 2.4,-2 v 0.1 c 1.5,3.7 1.9,6.9 1.9,9.5 0,5.2 -1.9,8 -1.9,8 -0.3,0.4 -1.4,3.1 -2.2,4.9 -0.4,-0.9 -1.1,-1.4 -1.5,-1.6 -0.2,-0.8 -0.8,-1.4 -1.2,-1.7 v -0.1 c -0.2,-2.5 -2.7,-2.7 -2.3,-2.8 -0.6,-1.6 -2.7,-2.4 -2.7,-2.4 -0.9,-1.5 -3.5,-1.7 -3.5,-1.8 0,0 -0.1,0 -0.3,0 -1.2,0 -3.6,1 -4.3,1.2 -0.2,0 -0.6,0 -1,0 -0.6,0 -1.3,0 -2.1,0.4 -0.2,0 -0.5,0 -0.8,0 -1.3,0 -3.7,0.5 -5.1,3.3 0,0 -1.7,1.2 -2.7,2.8 0,0.1 -2.7,8 -3.1,11 -0.4,3.1 -0.2,2.2 -0.4,3 -0.1,0.7 -4.1,4.2 -4.1,7.1 0,0.5 0.1,1 0.3,1.4 -2.3,1.7 -9.5,8 -9.5,21.3 0,1.3 0.1,2.7 0.2,4.2 -3,-1.2 -6.2,-2.1 -7,-2.3 -0.5,-0.7 -1.3,-0.9 -1.7,-1.1 -0.6,-0.2 -3.1,-1.3 -3.4,-1.8 -0.9,-1 -2.6,-1.4 -3.7,-1.5 v 0 c -0.8,-0.6 -2.7,-4.4 -3.5,-7.5 -1.1,-3.4 -1.9,-7.6 -1.9,-12 v -0.4 l -0.4,-0.2 h 0.4 c 0,-4.9 -3.2,-11 -4.1,-13.2 -0.1,-0.1 -0.1,-0.3 -0.2,-0.4 l 4.4,-2.2 c 0,0.4 -0.1,0.9 -0.1,1.3 0,0.7 0.1,1.5 0.5,2.2 0,0 2.4,6.5 9.6,7.1 0.7,0 6.9,0.3 6.9,0.3 0.1,0 0.2,0 0.2,0 1.5,0.8 3.3,1.8 5.4,1.8 1.2,0 2.4,-0.3 3.5,-1.1 0,0 1.9,-1 1.9,-3.7 0,-0.2 0,-0.6 -0.1,-0.9 0.6,-0.4 1.4,-1.2 1.5,-2.6 0,-0.4 -0.1,-0.8 -0.4,-1.3 l -0.5,-0.9 2.4,-0.4 c 0.1,-0.2 1.9,-0.4 2.2,-2.1 0,0 0,-0.2 -0.1,-0.4 L 313.8,99 c 0,0 -3.2,-0.6 -3.8,-0.6 -0.3,0 -4,-0.6 -4,-0.6 l -1.5,0.2 -1.6,-0.4 v 0 c -0.6,-1.8 -3.7,-4 -4.7,-4.8 0.5,-0.2 0.9,-0.6 1.2,-1 0.2,-1 0.2,-2.7 0.2,-3.5 0,-0.3 0,-0.4 0,-0.4 0,0 0,-0.2 -0.1,-0.3 1.3,-1.9 1.5,-4.1 1.5,-5.4 l 3.2,1.7 c 0.1,0 2.4,1.4 4,1.4 h 0.1 c 1.5,-0.1 1.9,-1.4 1.8,-1.8 0,0 0.5,-0.6 0.5,-0.6 0.7,-0.3 1,-0.7 1.2,-1.1 0.4,0 1.2,-0.1 1.8,-0.4 0.3,-0.2 0.6,-0.5 0.8,-0.8 0.3,0.2 0.6,0.4 1.1,0.4 0.8,0 1.5,-0.8 1.6,-1.7 0.5,-2.3 2.6,-7.3 3,-8.5 0.2,-0.6 0.4,-0.9 0.6,-1.1 0.5,0.2 1,0.3 1.6,0.3 h 0.4 c 2.3,-0.2 2.8,-1.9 2.8,-2.4 0,-0.1 0.5,-1.7 0.5,-3.3 0,-1.7 -0.6,-3.9 -2.8,-4.8 -0.5,-1 -2.4,-4.3 -6,-4.4 -0.2,0 -0.5,0 -0.7,0 -1,-0.7 -4.9,-3.2 -9.2,-3.2 -0.5,0 -1.1,0 -1.6,0.1 0.1,0 -2.3,-0.5 -4.9,-0.5 -2.8,0 -6.4,0.4 -7.1,3.3 -1.6,0.3 -6.6,1.1 -7.2,3.9 -0.3,0 -0.7,0.1 -0.9,0.3 -0.8,0.4 -2.3,1.6 -2.4,3.4 -2.7,-1.2 -5.3,-1.4 -6.6,-1.4 -0.1,0 -0.2,0 -0.3,0 -0.3,0 -0.4,0 -0.5,0 0,0 -3.7,-0.4 -7.7,-0.4 -2.1,0 -4.3,0.1 -6,0.5 -4.7,1.1 -10.6,2.2 -13.2,3.7 -2.6,1.6 -4.9,6.2 -6.6,7.1 -1.9,1.1 -5.2,2.4 -6.2,6.3 -0.1,0.4 -0.2,1 -0.3,1.6 -0.8,0.2 -6,2 -10.9,10.9 0,0 -3.3,4 -4.4,4.9 -0.7,0.6 -0.8,1.5 -0.8,2.5 0,1.8 0.6,3.8 1.5,4.8 0.3,0.2 1,1.1 2,2 -0.4,0.6 -0.9,1.6 -0.9,3 0,1.5 0.4,3.4 1.9,5.8 -1.5,1.1 -4.9,4.5 -6.1,14.4 0,0 -0.6,12.3 -2.2,17 -2.9,6.1 -9.4,12.8 -9.4,12.8 -0.1,0.1 -0.9,1 -0.9,2.4 0,0.8 0.3,1.8 1.3,2.7 l 4.8,3.4 c 0.1,0.1 0.2,0.1 0.4,0.1 0,0.2 0.1,0.4 0.1,0.5 0.7,1.2 2.2,1.3 4.1,2 1.7,0.5 3.2,0.8 3.9,0.9 0.3,0.3 0.7,0.4 1.2,0.4 2.9,0.1 4.2,0 5.2,1.2 0.6,0.6 1.2,1.3 2,1.7 0.2,0.1 1,0.3 2.2,0.4 -2,1.2 -4,3 -4.4,5.3 -0.1,1.2 -0.6,3.3 -0.6,5.4 0,3.1 1.2,6.5 6,6.5 h 0.1 l 0.5,-0.1 c 0,0 2.6,-1.4 4.2,-2.8 0.2,1.2 0.7,4.4 2.2,6.3 0.1,0.1 0.1,0.2 0.2,0.2 -0.1,0.4 -0.3,1.7 -0.3,3.4 0,2.7 0.6,6.6 3.5,9.6 -0.4,0.4 -1.2,1.4 -1.3,2.8 -0.1,1.5 -0.1,4.2 -1.2,6.6 -1.2,2.5 -3.4,7.9 -3.5,9.9 0,0 0,0.2 0.1,0.4 0.1,0.8 1,2.4 1.7,4 0.4,0.8 0.9,1.6 1.2,2.1 0.2,0.3 0.3,0.5 0.4,0.7 0,0.1 0.1,0.1 0.1,0.2 0.4,0.9 0.9,1.3 1.5,1.7 0.4,0.1 1.4,0.3 1.9,0.3 V 236 l 0.2,-0.2 v 0.3 h 0.1 v 0 c 0.2,0 0.8,0.1 1.1,0.1 0.1,0 0.3,0 0.4,-0.1 0.4,-0.2 1.5,0 1.9,-1.4 0,-0.2 0,-0.5 0,-0.7 v 0 c 0.7,-0.6 1.6,-1.5 1.8,-2.7 0.1,-0.3 -0.2,-0.8 -0.7,-0.9 -0.4,-0.2 -1.5,-0.5 -2,-0.7 -0.8,-0.3 -1.1,-0.3 -1.1,-0.5 -0.3,-0.5 -0.4,-0.8 -0.4,-1 V 228 c 0.2,-0.4 0.9,-1.1 1.4,-1.4 0.3,-0.3 6.3,-4.3 7.2,-4.4 h 0.1 v 0 c 1.2,0.3 3.3,0.8 3.9,1.5 1.1,1 9.4,8 11.5,9 1.7,0.8 9.1,5.3 13.1,5.8 3.6,0.4 10.1,1.8 12.8,2.5 1.4,0.4 3.7,0.8 5.9,0.8 2.2,0 4.6,-0.4 6.2,-2.2 2.4,-2.9 3.8,-3.1 4.1,-5.5 0.1,-1 0.4,-3.2 0.4,-5.4 0,-1.7 -0.2,-3.5 -1,-4.8 -1.6,-2.7 -3.1,-4.5 -3.1,-4.5 -0.1,-0.1 -0.1,-0.2 -0.2,-0.2 0,0 0,-0.1 0,-0.1 0.1,-0.6 0.2,-1.2 0.2,-1.7 0,-2.9 -1.6,-4.9 -1.7,-5.4 -0.1,-0.4 -0.9,-2.7 -1.8,-5.6 -0.5,-1.6 -1.1,-3.3 -1.6,-5 0.4,-0.4 2.1,-1.8 3.8,-3.6 0.6,0.6 11.5,12.3 16.1,13.3 0.1,0 0.2,0.1 0.4,0.1 0,0 4.9,-0.1 9.5,-1.7 3.6,-1.2 6,-3.4 8.4,-3.3 0.7,0 1.5,0.1 2.4,0.6 0,0.1 0.1,0.2 0.1,0.3 0.2,0.5 0.6,0.9 1.1,1.4 l 0.6,9.1 c 0,0.1 0,0.1 0,0.1 0,0.5 0,2.2 1.4,2.7 l -1.3,9.1 -22.5,5.3 c -0.2,0 -0.3,0.1 -0.4,0.2 0,0 -0.1,0 -0.1,0.1 -0.1,0.2 -0.2,0.3 -0.1,0.6 v 5.6 l 0.5,0.7 22.2,7.5 h 0.4 l 40.6,-11.9 c 0.3,-0.1 0.5,-0.4 0.5,-0.7 v -5.8 c 0,-0.3 -0.2,-0.6 -0.6,-0.7 l -23.3,-4.8 -3.6,0.8 -2.6,-16.9 c 0,0 0.1,-0.1 0.1,-0.1 1,-1.3 2.1,-3.4 2.1,-6.1 0,-0.7 -0.1,-1.6 -0.3,-2.4 -0.8,-3.3 -1.1,-5.1 -1.1,-6.4 0,-1 0.2,-1.6 0.4,-2.3 0.1,-0.7 7.7,-9.9 12.8,-19.1 0,3.2 -0.1,8.5 -0.1,10.9 0,0.6 0,1 0,1.3 0,0.4 0.1,1.2 0.1,2.1 0,1.7 -0.2,4 -0.9,4.8 -1.3,1.9 -2.7,4.8 -2.7,6.6 0,0 0,0.2 0.1,0.5 0,0.4 0.1,1.2 0.1,1.9 0,0.9 -0.1,1.7 -0.2,2 -0.2,0.7 -1.6,4.9 -1.6,4.9 0,0.1 -0.1,0.4 -0.1,0.8 -0.1,1.1 0.4,3.7 3.3,4 1.4,0.2 3.1,0.3 4.6,0.3 2.1,0 4,-0.2 5.2,-0.7 1.6,-0.9 3,-2.3 3.1,-3.9 0,-0.2 0,-0.5 -0.2,-0.8 -0.7,-1.4 -2,-2.2 -2.7,-3.2 -0.7,-0.8 -1.5,-2.5 -1.5,-3.5 v -0.3 c 0,-0.1 0.5,-1.7 0.6,-2.7 v -0.1 0 0 -0.1 c 0,-0.2 -0.1,-0.8 -0.1,-1.4 0,-1.2 0.2,-2.8 0.5,-3.1 0.8,-1.1 6.3,-9.5 6.3,-9.5 0.1,-0.1 2.8,-4.2 3.7,-15.8 V 168 c 3,-0.2 5.2,-0.3 6.2,-0.3 l -0.2,0.6 -2.7,5.8 c 0,0 -4.6,8.8 -5.4,11 -0.5,1.3 -2.4,5 -2.4,10.4 0,2.6 0.5,5.7 1.7,8.9 l 1.5,5.5 c 2.5,8.1 3.8,9.4 7.1,9.8 h 0.2 c -0.3,1.1 -0.6,2.1 -0.8,2.5 -0.3,0.7 -1,1.9 -1.3,3.3 -0.2,0.6 -0.3,1.3 -0.3,2 0,0.2 0,0.4 0.1,0.6 0.2,1.9 0.2,4.2 2.4,4.6 0.3,0.1 0.6,0.1 0.9,0.1 1.2,0 2.5,-0.2 3,-0.3 0.6,0.2 2.2,0.8 3.3,0.8 0.5,0.1 1.1,0.1 1.7,0.1 0.6,0 1.3,-0.1 1.9,-0.4 0.7,-0.5 2.3,-1 3.1,-1.7 0.7,-0.6 2.8,-2.1 2.9,-4 0,0 0,-0.1 0,-0.1 -0.2,-2 -3.4,-6.2 -3.4,-6.4 0,0.1 0,0 0,-0.2 3,0.6 11.8,0.9 21,1.4 3,0.2 3.3,0.1 6,0.2 0.4,0 0.9,0.1 1.5,0.1 6.9,0 19.6,-1.4 19.7,-1.4 0.3,0 0.6,-0.3 0.7,-0.6 1.1,-0.2 0.8,-0.5 0.5,-0.6 M 422.2,92.2 c 0.1,0 0.1,-0.1 0.1,-0.1 0.4,0 0.9,0 1.4,0 h 1.5 c 2.5,0 5.9,0.3 9.6,3.1 l 0.7,0.1 4.9,-1.5 c 0.6,-0.1 1.2,-0.1 1.8,-0.1 6.5,0 9.8,6.1 9.8,9.9 0.1,3.9 -5.9,9.7 -5.9,9.7 l -6.2,5.1 c -1.5,2.8 -7.3,6 -9.7,7.5 -14.1,-3.9 -18,-9.7 -18,-15.4 -0.1,-8.1 8.1,-16.4 10,-18.3 m -3.6,-0.9 c 0.9,0 1.7,0.2 2.2,0.3 -2.6,2.6 -10,10.4 -10.1,18.7 0,6.3 4.4,12.5 17.7,16.4 -1.6,0.8 -3.2,1.2 -4.8,1.2 -0.9,0 -1.7,-0.1 -2.7,-0.3 -9.3,-1.9 -18.3,-13.6 -18.4,-13.6 -0.1,-1.3 -0.3,-2.5 -0.7,-3.5 0.1,-0.1 0.2,-0.3 0.2,-0.5 0,-0.1 4.7,-14.6 13,-17.9 1.4,-0.6 2.5,-0.8 3.6,-0.8 m -8.1,-0.4 c 1.2,0 2.4,0.1 3.7,0.2 -7.8,3.6 -12,14.3 -13.1,17.8 -2,-2.9 -5.2,-3.6 -7.2,-3.5 -1.1,0 -1.8,0.1 -1.9,0.1 0,0 -0.1,0 -0.1,0 -0.7,-0.1 -1.5,-0.1 -1.8,-0.2 -0.3,0 -3.7,-1.4 -4.9,-1.5 -0.1,0 -1,-0.3 -1.9,-0.6 -1.2,-0.5 -2.6,-1.1 -2.8,-1.3 -0.5,-0.3 -0.9,-0.3 -1.4,-0.3 h -0.6 c 0.8,-0.9 2.7,-2.7 5.1,-3.8 0.9,-0.2 13.6,-6.9 26.9,-6.9 m -18.4,33.7 c -0.4,-0.1 -0.7,0.2 -0.8,0.6 v 0 c 0,0 -0.6,3.7 -1.5,6.5 -0.4,0.9 -0.6,1.5 -0.6,1.5 -0.4,0.7 -0.9,1.5 -1.3,2.1 -2.7,3.7 -4.9,4.4 -6.2,4.4 -0.6,0 -1.1,-0.1 -1.3,-0.2 l 0.8,-0.5 c 0.3,-0.2 0.4,-0.6 0.2,-1 -0.2,-0.4 -0.7,-0.5 -1,-0.3 l -1.4,0.9 c -0.1,0.1 -0.1,0.1 -0.2,0.2 -0.7,-0.3 -1.5,-0.6 -1.5,-0.6 l -0.8,0.1 -1.4,1.4 c -0.1,0 -0.1,0 -0.2,0 -1,0.2 -2.3,-2.9 -2.7,-4 -0.7,-1.3 -1.9,-1.8 -2.6,-1.9 -0.2,0 -1.6,-0.3 -1.7,-0.3 0,-0.1 -3.5,-2.8 -3.8,-3.2 -1.6,-1.9 -2,-4.7 -2,-4.7 -0.2,-1.3 -0.3,-2.6 -0.3,-3.6 0,-0.4 0,-0.6 0,-1 0.3,-6.2 3.1,-8.9 3.1,-8.9 l 2.5,-2.2 c 0,0 1.9,-1.7 2.2,-2 0.2,-0.2 2.6,-1.1 3.7,-1.7 0.2,-0.2 1.2,-0.4 2.2,-0.3 0.5,0 0.9,0 1.3,0 h 0.2 c 0,0 0.1,0 0.2,0 0.8,0 4.3,0.8 4.4,0.9 0.3,0.1 3.3,1.9 3.3,1.9 0,0 0.2,0.5 0.2,1 0,0.3 0,0.6 -0.1,0.9 -0.4,1 -2.7,5.2 -3.6,6.2 -0.5,0.4 -0.7,1 -0.7,1.5 0,1.2 1,1.9 1.1,2.1 0,0 0.1,0.1 0.1,0.4 0,0.2 -0.1,0.4 -0.1,0.6 0,0.2 -0.9,0.8 -1.3,1.8 -0.2,0.5 -0.2,1 -0.2,1.6 0,0.8 0.1,1.8 0.4,2.6 0.3,0.6 0.9,0.8 1.3,0.8 1.1,0 2.7,-0.9 3,-1 0.2,0 0.2,0 0.4,-0.1 1,-0.2 2.7,-0.5 3.4,-1.8 v 0 c 0.4,-0.2 1.3,0 2.2,-0.6 0.8,-0.7 1.8,-2.4 2.1,-2.7 0.5,-0.6 1,-1.6 1.2,-1.7 0.4,-0.4 0.7,-1 0.7,-1.6 0,-0.3 -0.1,-0.5 -0.2,-0.8 0.1,-0.1 0.2,-0.2 0.4,-0.3 0.5,-0.5 0.6,-1 0.6,-1.5 0,-0.5 -0.1,-0.9 -0.2,-1.4 -0.3,-0.8 -1.7,-2.7 -1.7,-3 0,-0.1 0.4,-1 0.7,-1.6 l -0.4,-0.3 h 0.4 v 0 0 c -0.3,-1.2 -1.2,-1.4 -1.7,-1.7 0.1,-0.2 0.2,-0.6 0.3,-1 0.1,-0.3 0.1,-0.3 0.1,-0.3 0,0 0,-0.1 0,-0.1 h 0.6 c 2.6,0.1 7,0.7 7.4,7.7 0,0.6 0,1.1 0,1.5 v 0.7 c 0,0 -1.9,6.3 -6.2,7.8 -0.6,0.2 -2.1,1.1 -2.3,1.3 -0.1,0.1 -0.1,0.2 -0.2,0.2 0,-0.3 0.1,-0.6 0.1,-0.6 0.1,-0.3 -0.2,-0.6 -0.6,-0.7 m -7.2,15.7 c -1.4,2.1 -2.8,4.2 -3.6,5 -0.7,0.9 -2.3,1.6 -3.6,2.2 -1.1,0.4 -2.1,0.7 -2.1,0.7 l -13.9,1.6 -0.9,0.2 c -0.4,-1.5 -1.6,-5.4 -2.1,-7.9 0,-0.2 -0.1,-0.4 -0.1,-0.7 -0.1,-2.6 3.1,-6.8 3.5,-7 0.8,-0.6 1.3,-1.7 1.5,-2.4 1.3,1.1 3.7,3 3.7,3 0.4,0.1 1.8,0.5 2.3,0.5 0,0 1,0.3 1.3,1.1 0.5,0.7 1.2,4.6 4,4.8 0.2,0 0.4,-0.1 0.6,-0.1 l 0.4,-0.2 1.3,-1.2 c 0.7,0.2 2,0.9 2.3,1 0.2,0.1 1,0.5 2.1,0.5 1,-0.3 2.1,-0.5 3.3,-1.1 m -24.7,-23.8 v -0.2 c 0,-0.3 -0.1,-0.5 -0.1,-0.7 0,-0.2 0,-0.2 0,-0.2 1.3,-1 1.1,-2.7 1.9,-3.8 0.3,-0.6 0.7,-0.9 1.4,-1.1 3.3,-0.9 2.5,-3.8 3.7,-3.7 1.9,-0.6 3.9,-2 4.3,-2.1 v 0 0.1 -0.1 l 0.1,0.1 c 1.1,-0.1 3.6,-1.1 4.1,-1.2 0.3,-0.1 1.2,-0.2 2,-0.3 0.6,-0.1 1.1,-0.1 1.5,-0.1 0.2,0 0.3,0 0.4,0 h 0.2 c 0.5,0.3 1.8,0.9 3.1,1.4 0.9,0.4 1.7,0.6 2.3,0.7 0.6,0 4,1.4 4.9,1.6 0.3,0 0.9,0 1.4,0.2 0.1,0 0.3,0.1 0.4,0.1 v 0 c -0.1,0.2 -0.4,0.6 -0.4,1.3 -0.1,0.3 0.2,0.8 0.5,0.9 0.2,0.1 0.6,0.2 0.9,0.5 0.2,0.1 0.3,0.2 0.4,0.3 v 0 c 0,0 -0.6,0.7 -0.7,1.6 0,0 0,0.2 0.1,0.4 0.2,0.8 1.5,2.6 1.7,3.1 0.1,0.2 0.2,0.6 0.2,0.9 0,0.3 -0.1,0.4 -0.1,0.4 -0.3,0.3 -0.8,0.4 -1,1.4 0,0.2 0.2,0.5 0.3,0.7 0,0 0,0.1 0,0.1 0,0 -0.2,0.5 -0.2,0.6 -0.5,0.5 -1,1.4 -1.3,1.8 -0.4,0.5 -1.6,2.3 -1.9,2.5 0,0.3 -1.8,-0.2 -2.6,1.3 0,0 0,0 -0.2,0.1 -0.4,0.3 -1.6,0.7 -1.9,0.7 h -0.1 -0.1 c 0,0 -0.1,0 -0.1,0 -0.9,0.2 -2.3,1 -2.9,0.9 v 0.1 c -0.2,-0.5 -0.3,-1.3 -0.3,-2 0,-0.5 0.1,-1.1 0.1,-1.2 0.1,-0.4 0.9,-0.9 1.3,-1.8 0.1,-0.3 0.2,-0.7 0.2,-1.1 0,-0.5 -0.1,-0.9 -0.4,-1.3 -0.3,-0.3 -0.8,-0.9 -0.7,-1.2 0,-0.2 0,-0.2 0.2,-0.5 1.4,-1.4 3.5,-5.5 4,-6.8 0.2,-0.4 0.2,-0.9 0.2,-1.3 0,-0.9 -0.2,-1.5 -0.6,-2 -0.6,-0.6 -3.2,-1.9 -3.9,-2.3 -0.7,-0.3 -3.9,-0.9 -5.1,-1 h -0.1 -0.1 -0.3 c -0.3,0 -0.8,0 -1.3,0 -1,0 -2.1,0 -2.9,0.6 -0.8,0.5 -3,1.3 -3.7,1.7 -0.6,0.4 -2.4,2.1 -2.4,2.1 l -2.5,2.2 c -0.1,0.1 -3,2.9 -3.5,8.8 -0.1,-0.1 -0.2,-0.4 -0.2,-0.6 V 119 c 0.1,-0.4 0.1,-0.7 0.1,-0.7 0,-0.6 -0.2,-1.3 -0.3,-1.8 m 35.9,-37.8 c 0,0 2.2,3.9 2.2,5.5 -1.6,-1.1 -3.3,-2 -5.3,-2.8 -0.4,-0.1 -0.8,0 -1,0.4 -0.1,0.4 0,0.8 0.4,1 2.2,0.9 4.3,2.1 5.9,3.3 2.4,1.7 3.7,3.3 4.3,4.1 -9.3,1.5 -17,5.2 -19.1,6.2 -6.5,-4.7 -7.2,-9.2 -7.2,-11.3 0,-0.6 0.1,-0.9 0.1,-0.9 0.3,-0.4 0.6,-0.7 0.9,-1.1 0.6,-0.8 0.7,-1.9 0.7,-2.8 0,-1.1 -0.2,-2.2 -0.2,-2.5 v 0 c 0,-0.1 0.3,-1 0.9,-1.5 1.2,-1.2 0.9,-3.5 1.1,-4.1 -0.1,0 0.5,-0.5 1.2,-1.1 0.2,-0.4 0.3,-0.7 0.3,-1.2 0,-1.2 -0.5,-3 -0.6,-3.5 0,-0.1 0,-0.1 0,-0.1 0,-0.4 0.1,-0.6 0.2,-1 1.2,0.6 9.7,4.2 15.2,13.4 M 356.8,49.9 c 0.1,0 0.2,-0.2 0.3,-0.2 v -0.1 c 1.2,-1.3 2.6,-2.7 3,-3.1 0.3,-0.3 5.2,-1.6 5.4,-1.6 0.1,0 0.4,-0.1 0.9,-0.1 1.8,0 5.4,0.3 7.4,2.5 l 0.4,0.2 c 0.1,0 3.4,0.3 4,2 1,2.2 2.8,5.8 2.8,6.6 0,0 0,0 0,0.2 -0.1,0.7 -0.7,1.6 -0.8,2.7 0,0 0,0.1 0,0.3 0,0 0,0.1 0,0.1 0,1 -0.3,3.8 -0.5,4.4 -0.1,0.2 -0.1,0.3 -0.2,0.4 -0.2,0.6 -0.5,1.3 -0.5,2 0,0 0,0.2 0.1,0.5 0.1,0.7 0.6,2.4 0.6,3.3 0,0.2 -0.1,0.2 -0.1,0.2 -0.3,0.5 -1.2,0.8 -1.4,2 0.1,0.5 -0.2,3 -0.5,3 -0.9,0.7 -1.3,1.7 -1.4,2.4 v 0.1 c 0,0.5 0.2,1.4 0.2,2.6 0,0.8 -0.1,1.6 -0.4,1.9 -0.2,0.3 -0.5,0.6 -0.7,0.7 -0.3,0 -0.9,0 -1.4,0.5 l -0.8,0.5 -0.3,0.4 c 0,0 -0.2,0.8 -0.4,1.6 -0.1,0.2 -0.1,0.6 -0.2,0.8 -0.4,-0.5 -0.8,-1.2 -1.1,-1.6 l 1.4,-5 0.7,-6.7 v -0.3 l 5.1,-8.1 c 0.1,-0.4 0.1,-0.5 0.1,-0.5 -0.1,-1.2 -0.4,-3.6 -1.4,-4.6 -0.5,-0.4 -2.4,-2.7 -2.3,-2.9 -0.1,-0.8 -0.7,-3.2 -0.7,-3.2 -0.1,-0.3 -0.2,-0.5 -0.4,-0.5 -0.2,-0.1 -0.5,0 -0.7,0.1 0,0 -3.8,3.2 -4.5,3.5 0,0 -0.4,0.1 -0.8,0.1 -1.1,0 -2.6,-0.3 -3.2,-0.3 h -0.1 c -1,0.1 -2.7,0.4 -3.4,1.7 -0.4,0.7 -1.9,3.5 -2.2,3.9 -0.6,1 -1,3.5 -1,5.1 0,0.5 -0.2,0.9 -0.6,1.4 -0.3,0.5 -0.6,0.9 -0.9,1.5 -0.1,0.3 -0.2,0.6 -0.2,1 0,0.9 0.3,1.6 0.5,2.7 0,0.2 0,0.7 0,1.1 0,1.3 -0.2,2.9 -0.3,3.4 0,0 -0.1,0 -0.2,0.1 -0.2,0.1 -0.5,0.1 -0.7,0.1 v 0 c 0,0 -0.1,0 -0.2,0 -0.3,0 -0.6,0.1 -0.9,0.2 0.1,-0.4 0.2,-0.8 0.2,-1 0,-0.1 0,-0.2 0,-0.2 -0.1,-1.1 -1.4,-3.7 -1.6,-4.6 -0.3,-0.8 -1.2,-7.8 -1.2,-9.4 v -0.1 c 0,-1.3 1.6,-5.7 1.8,-6.7 0.1,-0.6 1.3,-4.1 2,-5.4 0.2,-0.3 0.7,-1 1.3,-1.6 m 13.3,18.4 c 0,0 0.4,0.2 0.9,0.5 l -0.1,0.4 c -0.1,0.4 0.1,0.8 0.5,0.9 0.4,0.1 0.8,-0.1 0.9,-0.5 v -0.3 c 0.5,0.2 1.1,0.3 1.7,0.4 l -2,3.1 c 0,0.1 -0.1,0.1 -0.1,0.1 -3.5,2.7 -7.9,2.8 -8.7,2.8 H 363 c -2.3,-0.5 -4.2,-6.5 -4.2,-6.5 0,0 0,-0.1 -0.1,-0.1 0.2,-0.4 0.4,-0.9 0.4,-1.5 0,-1.1 0.6,-4.1 0.7,-4.2 0.4,-0.7 1.9,-3.2 2.4,-4.2 0,-0.4 1.5,-0.9 2.1,-0.9 0.5,0 2.1,0.3 3.3,0.3 0.5,0 1,0 1.5,-0.2 0.7,-0.4 2.6,-2 3.8,-2.9 0.1,0.7 0.4,1.7 0.4,2 0.3,1.3 2,3 2.7,3.8 0.2,0 1,2.9 0.9,3.4 v 0.2 l -2.2,3.5 h -0.1 c -2,-0.1 -4,-1.3 -4,-1.3 -0.3,-0.2 -0.8,-0.1 -1,0.3 0,0.2 0.1,0.7 0.5,0.9 m -30,10.4 c 0.1,0.8 -1.6,0.7 -4,2.2 -0.7,0.5 -1.5,0.6 -2.2,0.6 -0.8,0 -1.4,-0.2 -2,-0.4 -0.5,-0.2 -0.8,-0.4 -0.8,-0.4 v 0 c 0,0 -4.4,-4.2 -4.5,-4.4 -0.3,-0.4 -0.7,-0.6 -1.1,-0.6 -0.5,0 -0.9,0.2 -1.2,0.6 -0.1,0.1 -0.2,0.2 -0.2,0.2 v -0.1 c -0.1,0.1 -0.5,0.1 -1.1,0.1 h -0.1 c -1,0 -1.5,-0.4 -1.8,-0.8 0.5,-0.3 1.6,-0.8 1.6,-0.8 0.1,-0.1 2.7,-1.6 5.2,-1.7 0.4,0 0.8,-0.1 1.2,-0.1 0.7,-0.1 1.2,-0.1 1.8,-0.1 0.9,0 1.6,0.2 2.7,0.8 l 2.5,1.5 c 0,0 0,0 0.1,0.1 0.4,0.7 0.8,1.4 0.8,1.4 0.2,0.4 0.6,0.5 1,0.3 0.3,-0.3 0.5,-0.7 0.2,-1 0,0 -0.6,-1 -1.1,-1.8 -0.3,-0.5 -0.6,-0.9 -0.6,-0.9 -0.1,-0.2 -0.1,-0.3 -0.1,-0.3 0,-0.2 0,-0.2 0.2,-0.4 h 0.1 c 0.1,0 0.3,0 0.3,0 0.1,0.1 0.2,0.1 0.2,0.1 0.1,0 0.7,0.8 1.7,1.6 1,0.9 0.3,-0.6 1.2,2.9 0.1,0.5 0.1,0.8 0.1,1.1 v 0.3 z m 5.2,-2.5 c -0.3,0.4 -0.7,0.7 -1,0.9 -0.6,0.3 -1.8,0.6 -2.7,0.8 0,-0.3 -0.1,-0.6 -0.2,-1 -0.6,-3 -0.9,-3.2 -1.7,-3.7 -0.9,-0.6 -1.4,-1.3 -1.6,-1.6 -0.3,-0.2 -0.7,-0.4 -1.5,-0.4 -0.4,0 -0.9,0.1 -1.2,0.7 -0.3,0.4 -0.4,0.8 -0.4,1.2 0,0 0,0.1 0,0.1 l -0.8,-0.5 c -1.2,-0.8 -2.4,-1 -3.5,-1 -0.4,0 -0.7,0 -1.1,0.1 0.1,-1.2 0.4,-3.9 0.9,-4.2 0.8,-0.7 2.4,-1.9 3.8,-2.1 0.2,0 0.4,-0.1 0.6,-0.1 0.3,0 0.6,0.1 0.9,0.1 2.1,0.9 8.1,3.7 9.4,6.8 0.4,1 0.6,1.7 0.6,2.4 -0.1,0.6 -0.3,1.1 -0.5,1.5 m 4.7,17.2 c 0.1,-0.1 2.1,-3.2 2.1,-8.8 0,-2.5 -0.4,-5.4 -1.6,-8.8 0,0 0,-0.1 0,-0.1 l -2.1,-8.3 c -0.1,-0.4 -0.4,-0.6 -0.9,-0.5 -0.4,0.1 -0.6,0.5 -0.5,0.9 l 1.5,5.8 c -0.6,0.1 -1,0.4 -1.5,0.7 0,-0.8 -0.2,-1.6 -0.7,-2.6 -1.8,-4 -8,-6.7 -10.1,-7.6 -0.5,-0.2 -0.9,-0.3 -1.4,-0.3 h -0.1 c 0,-0.1 0,-0.1 -0.1,-0.2 v 0 c 0,0 -0.6,-1.1 -0.6,-2.7 0,-1.4 0.4,-3.1 2,-4.9 3.7,-4.4 4.7,-4.8 6,-4.9 1.6,-0.2 4.3,-0.6 4.3,-0.6 0.3,-0.1 2.7,-1.8 5.6,-1.7 1.1,0 2.1,0.2 3.3,0.8 -0.4,0.5 -0.8,1 -1,1.3 -0.9,1.6 -2,4.9 -2.2,5.8 -0.1,0.7 -1.8,5.1 -1.9,6.9 v 0 c 0,1.8 1,8.7 1.4,9.9 0.3,1 1.6,3.9 1.5,4.2 v 0.1 c -0.1,0.4 -0.4,2.4 -0.4,2.4 -0.1,0.3 0.1,0.6 0.3,0.7 0.2,0.2 0.5,0.2 0.8,0.1 0,0 0.3,-0.2 0.8,-0.5 0.2,-0.1 0.4,-0.2 0.6,-0.3 0.2,-0.1 0.2,0 0.2,0 0,0 0.1,0 0.1,0 h 0.1 c 0.4,-0.1 1.7,0.1 2.2,-1.3 0.1,-0.7 0.4,-2.3 0.4,-3.7 0,-0.4 0,-0.9 -0.1,-1.3 -0.2,-1.2 -0.4,-2 -0.4,-2.5 0,-0.2 0,-0.3 0.1,-0.5 0,-0.1 0.1,-0.2 0.2,-0.3 0.6,1.8 2.2,5.6 5.2,6.5 h 0.3 c 0.8,0 4.8,-0.1 8.5,-2.4 l -0.5,5.3 -1.5,5.2 0.1,0.6 c 0.1,0.1 1.1,2.3 2.3,2.9 h 0.1 v 0 h 0.1 c 0,0 0,0 0.1,0 0,0 0,0 0,0 v 0 c 0.1,0 0.2,0 0.4,-0.1 0.9,-0.5 0.7,-1.2 1.1,-2 0.2,-0.6 0.3,-1.2 0.4,-1.4 l 0.6,-0.4 v 0 c 0,0.1 0,0.3 0,0.5 0,2.4 0.9,7.2 7.2,12 -3.2,1.7 -5.2,4.3 -5.3,4.4 -0.1,0.1 -0.1,0.3 -0.1,0.5 -0.6,0.1 -1.2,0.1 -1.4,0.2 -0.9,0.2 -3.4,1.2 -3.9,1.2 h -0.1 c -1.4,0.2 -2.8,1.6 -4.7,2.1 -2.7,1.2 -1.5,3.5 -3.5,3.7 -1.1,0.3 -1.9,1 -2.4,1.8 -0.8,1.6 -1.1,3.3 -1.3,3.3 -0.5,0.2 -0.8,0.8 -0.8,1.2 l -8.2,-3.9 c 0,-0.2 -0.1,-0.5 -0.1,-0.7 0,0 0,-0.3 0.1,-0.4 0.1,-0.4 0.2,-0.7 0.2,-0.9 0,-0.9 -0.4,-1.6 -0.7,-2.1 0.2,-0.2 0.2,-0.3 0.2,-0.6 V 107 c -0.2,-1.2 -1.2,-1.8 -1.8,-2.2 v -0.3 c 0,-0.4 -0.1,-0.8 -0.2,-1.3 -0.3,-0.5 -0.7,-2.5 -0.7,-2.5 0,-0.1 -0.1,-0.4 -0.1,-0.8 0,-0.7 2.5,-6.3 2.5,-6.5 m -14.9,-4.9 c 0.1,0 2.4,0.4 2.9,1.4 0.3,0.3 2.3,1.4 2.2,1.8 0.9,1.8 2.4,1.2 2.3,2.4 0,0 0,0.2 0,0.3 l 0.4,0.7 c 0,0 1,0.8 1,1.3 l 0.5,0.6 c 0,0 1,0.3 1.4,1.8 0,0.2 0.4,1.7 0.4,1.7 0,0.2 0.4,2.1 0.9,3 0,0.1 0.1,0.3 0.1,0.5 0,0.2 0,0.4 0,0.6 0,0.2 0,0.6 0.5,0.8 0,0 0.4,0.3 0.8,0.7 0.2,0.1 0.3,0.3 0.4,0.4 -0.2,0 -0.2,0.1 -0.2,0.1 -0.3,0.3 -0.3,0.7 0,1.1 0,0 0.8,0.9 0.8,1.7 0,0.2 0,0.3 -0.1,0.4 -0.1,0.3 -0.2,0.6 -0.2,0.9 0,0.9 0.2,1.5 0.2,2 0,0.4 -0.1,0.7 -0.7,1.2 -0.1,0.1 -1.3,1.3 -2.3,1.7 -0.6,0.2 -1.2,0.3 -1.6,0.3 -0.1,0 -0.1,-0.1 -0.1,-0.1 -0.1,-0.2 -0.3,-0.6 -0.5,-0.9 -0.6,-1 -1.8,-1.1 -1.9,-4.3 v -0.3 c 1,-0.5 2.1,-1 2.9,-1.7 0.5,-0.5 0.5,-1 0.5,-1.5 0,-1.2 -0.6,-2.9 -0.7,-3.3 0,0 0,-0.2 0,-0.2 -0.1,-0.9 -0.6,-4.7 -0.6,-5.1 0,-0.1 -0.1,-0.1 -0.1,-0.2 0.1,-0.2 0.2,-0.4 0.2,-0.4 l -0.2,-0.8 c 0,0 -0.9,-0.6 -2.1,-1.4 0,-0.1 0.1,-0.2 0.1,-0.2 -0.1,-0.6 -0.4,-1.7 -1.5,-2.6 -1,-0.9 -2.3,-1.7 -2.6,-1.9 -0.2,-0.2 -1.9,-1.6 -1.9,-1.6 -1.2,-0.4 -2.1,-0.6 -2.9,-0.6 0.6,-0.1 1.4,-0.3 1.7,-0.3 m 4.9,53.6 c 0.1,0 3.1,1.9 3.3,2.9 0.2,0.5 0.3,1.2 0.3,1.9 0,1.2 -0.3,2 -1.6,2.5 0.1,0 -0.7,0.1 -1.6,0.2 -0.5,0.1 -1.1,0.1 -1.5,0.1 -0.1,-0.5 -0.5,-1.1 -1.3,-1.4 -0.3,-0.1 -0.7,-0.2 -1.1,-0.2 -0.5,0 -1.2,0.2 -1.8,0.6 -0.6,0.4 -3.4,2.1 -3.9,2.3 -0.7,0.3 -2,0.1 -2.7,1.3 -0.1,0.2 -0.4,1 -3.1,2.5 l -9.5,2.1 c -1.9,-3.2 -6.9,-10.4 -7.4,-11 v -0.1 c -0.2,-0.3 -0.5,-0.6 -0.9,-0.8 v -0.1 c 0,0 -0.3,-1.3 -0.3,-2.7 0,-1.2 0.3,-2.1 0.7,-2.2 0.2,-0.1 0.3,-0.2 0.5,-0.4 0.3,-0.3 1,-0.9 1.4,-1.4 0.6,-0.7 2.2,-2.4 2.5,-2.2 1.3,-0.2 2.2,-1.1 2.9,-1.9 0.6,-0.7 2.2,-2.6 4.2,-2.6 0.2,0 0.4,0 0.6,0.1 2.9,0.4 9.7,0.9 9.9,1.2 1.1,0.7 4.5,3.3 5.8,3.6 0.3,0 0.8,0 1.4,0.1 1,0.2 2.1,0.6 2.5,1.9 0.3,0.3 0.8,0.8 0.8,1.5 0,0.3 -0.1,0.7 -0.5,1.3 -0.1,0.2 -0.1,0.4 -0.1,0.6 0.3,0.1 0.4,0.3 0.5,0.3 m -7.9,18.8 c -0.2,0.3 -0.5,0.7 -0.6,0.7 -0.2,0 -0.5,0.1 -0.6,0.2 -0.1,-0.1 -0.2,-0.2 -0.3,-0.3 l -1,-0.8 c -0.3,-0.3 -0.8,-0.2 -1,0.1 -0.2,0.3 -0.2,0.8 0.1,1 l 0.9,0.7 c -0.1,0.1 -0.1,0.1 -0.2,0.1 -1.2,0.4 -1.2,1.1 -2,1.2 -0.4,0.1 -0.7,0.1 -1.2,0.1 -2,0 -4.8,-1.3 -5.4,-2.1 -1,-1.2 -2,-3.2 -2,-3.2 -0.1,-0.4 -0.6,-0.5 -0.9,-0.3 -0.3,0.1 -0.5,0.6 -0.3,0.9 0,0 0.2,0.3 0.3,0.6 -0.1,0 -0.2,0 -0.3,0.1 l -0.8,0.6 c -0.2,-0.8 -0.3,-1.6 -0.6,-2.4 l 9.3,-2.1 c 2.9,-1.5 3.7,-2.6 3.9,-3.2 v 0 c 0.3,-0.2 1.2,-0.4 1.8,-0.6 1,-0.4 3.4,-1.9 4.3,-2.5 0.4,-0.2 0.6,-0.4 0.9,-0.4 0.2,0 0.4,0 0.7,0.1 0.1,0 0.3,0.7 0.4,0.9 -0.5,2.3 -2.1,3.2 -2.1,3.2 l -0.4,0.7 c 0,0 -0.1,3.7 -0.2,5.1 0,0.2 -0.1,0.3 -0.8,0.3 -0.4,0 -0.8,-0.1 -0.9,-0.1 -0.1,-0.1 -0.5,-0.2 -0.8,-0.3 -0.2,-0.1 -0.4,-0.2 -0.5,-0.3 v 0 c -0.1,-0.3 -0.3,-0.6 -0.7,-0.6 0,0 -0.7,0.2 -0.7,0.7 v 0 c 0.5,1.3 1.2,1.7 1.7,1.9 m -1.3,-49.4 c -0.1,-0.7 -0.4,-1.3 -0.6,-1.9 1.7,0.5 5.3,1.2 10.4,1.3 0,3.4 2.1,4.7 2.1,4.9 v 0 c -1.5,4.4 -6,5.4 -9.5,5.4 -1.6,0 -2.9,-0.2 -3.5,-0.3 1,-2.1 1.3,-4.6 1.3,-4.7 0.1,-0.6 0.1,-1.2 0.1,-1.7 0.1,-1 -0.1,-1.9 -0.3,-3 m 9.3,-16.7 c -0.4,-0.2 -0.9,-0.5 -1.2,-0.6 -0.4,-0.2 -0.4,-0.3 -0.4,-0.3 0,-0.1 0.1,-0.2 0.2,-0.4 0.3,0.2 0.6,0.4 0.8,0.6 0.3,0.2 0.4,0.5 0.6,0.7 m -7.5,-4.4 c 0.8,0 1.6,0.1 2.7,0.4 -0.1,0.1 1.4,1.3 1.7,1.6 0.1,0.1 0.3,0.2 0.5,0.3 -0.2,0.3 -0.5,0.7 -0.5,1.3 0,0.7 0.5,1.3 1.3,1.6 1.2,0.5 3.4,2 4.3,2.6 -0.2,0.4 -0.7,1 -1.9,1.6 -0.3,0.2 -0.5,0.6 -0.2,1 0.1,0.2 0.3,0.4 0.6,0.4 0.1,0 0.2,0 0.3,-0.1 0.6,-0.3 1.1,-0.7 1.5,-1 0.1,0.5 0.1,1 0.2,1.5 -0.1,0 -0.2,0 -0.3,0.1 -1.1,0.7 -3.3,1.3 -3.3,1.3 -0.4,0.1 -0.6,0.5 -0.6,0.9 0.1,0.4 0.5,0.6 0.9,0.5 h -0.1 c 0.1,0 2.1,-0.4 3.6,-1.3 0.1,0.5 0.1,0.8 0.1,0.8 v 0.1 c 0,0 0,0.1 0,0.1 0.1,0.7 0.7,2.2 0.7,3.3 0,0.4 -0.1,0.4 -0.1,0.4 -0.8,0.6 -2.1,1.3 -3.2,1.8 -6.9,0 -10.8,-1.4 -11.4,-1.6 -0.5,-1.4 -0.7,-2.7 -0.7,-3.5 v -0.1 c 0,-0.2 0,-0.3 0,-0.3 0,-1.5 -0.8,-3.2 -1.5,-4.2 -0.8,-1 -1.5,-1.8 -1.5,-3.1 0,-0.2 0,-0.4 0,-0.5 0.1,-1.8 2.1,-4.8 2.4,-4.8 1,-0.4 2.2,-1.1 4.5,-1.1 M 317,109.1 c 0.3,-0.8 0.1,-0.4 0.5,-3.2 0.3,-2.6 3,-10.6 3,-10.6 0.6,-1.2 2.4,-2.5 2.4,-2.5 1.4,-2.5 3,-2.8 4,-2.8 0.4,0 0.7,0.1 0.7,0.1 h 0.4 c 0.2,-0.1 0.3,-0.1 0.5,-0.2 -0.4,0.2 -0.6,0.3 -0.8,0.4 -1.5,0.7 -2.9,3.5 -3.3,5.8 0,0.2 0,0.5 0,0.7 0,1.9 1.2,3.1 1.8,3.9 0.6,0.8 1.3,2.4 1.2,3.4 v 0.2 c -0.1,0 0,0.2 0,0.2 0,1.5 0.4,3.6 1.3,5.6 0.2,0.5 0.4,1.2 0.6,1.9 0.3,1 0.3,1.8 0.3,2.5 0,0.5 0,1 -0.1,1.5 0.1,0 -1.3,5.8 -2.3,6 -0.2,0.1 -1,0.2 -1.9,0.2 -1.5,0 -3.4,-0.2 -5,-0.5 -0.8,-0.1 -1.5,-0.4 -2,-0.6 -0.4,-0.2 -0.5,-0.3 -0.6,-0.3 -0.6,-1.6 -1.7,-2 -4.5,-4 -0.4,-0.3 -0.4,-0.5 -0.5,-0.9 0.1,-2 3.6,-5.4 4.3,-6.8 m -4,9 c 2.6,1.8 3.2,2.1 3.5,3.1 1.1,1.9 5.6,2.2 8.9,2.3 1.1,0 1.9,-0.1 2.5,-0.3 0.4,-0.2 0.8,-0.6 1.1,-1.1 v 0 c 0,0 1.9,0.4 4.3,0.4 h 0.1 c 0.9,0 1.8,-0.1 2.7,-0.2 l 0.2,12.6 c -0.3,0 -0.6,0 -0.7,0 -0.1,0.1 -4.3,-2.6 -5,-3.3 -1.5,-0.9 -7.6,-1 -10.5,-1.5 -0.3,-0.1 -0.6,-0.1 -0.8,-0.1 -3,0 -4.7,2.4 -5.3,3.1 -0.6,0.6 -1.5,1.3 -2,1.4 -1.5,0.2 -2.7,2.1 -3.4,2.7 -0.4,0.4 -1.1,1.1 -1.4,1.4 -0.2,0.2 -0.3,0.2 -0.3,0.2 -1.3,0.6 -1.4,2.2 -1.4,3.5 0,0.6 0.1,1.2 0.1,1.7 -0.5,-0.3 -1,-0.5 -1.5,-0.8 -0.2,-1.7 -0.3,-3.3 -0.3,-4.8 0,-13.4 7.4,-19.1 9.2,-20.3 m -17.4,23.7 c 1.9,0.6 7.8,2.3 10.5,4.1 l 0.1,0.1 c 0.4,0.3 0.7,0.5 0.9,0.8 v 0 c 0.8,1 7.2,10.3 7.7,11.7 -4.3,-4.4 -11.9,-7.3 -12,-7.4 -0.4,-0.1 -0.8,0.1 -0.9,0.4 -0.2,0.4 0,0.8 0.4,0.9 v 0 c 0,0 11.7,4.8 13.4,10 0.2,0.9 0.4,1.5 0.4,1.5 0,0.1 0.7,2.6 0.7,2.8 -0.2,2.7 -1.6,10.8 -7.4,12.3 0.9,-1.9 1.6,-4.1 1.6,-6.6 0,-3.5 -1.4,-7.4 -5,-12 -0.2,-0.3 -0.7,-0.4 -1,-0.1 -0.3,0.2 -0.4,0.7 -0.1,1 3.5,4.4 4.6,8 4.6,11.1 0,2.7 -0.9,5 -2,7 -1.5,2.4 -5.5,5.6 -11,6.4 h -0.4 c -2,0 -3.4,-0.6 -4.3,-1.2 -0.9,-0.6 -1.4,-1.1 -1.4,-1.1 -0.1,-0.1 -0.2,-0.2 -0.3,-0.2 0.9,-1.9 1.9,-4.2 2.2,-5.7 1.4,-0.2 5,-0.9 5.4,-3.7 0.1,-0.5 0.1,-1.1 0.1,-1.9 0,-2.7 -1.8,-6 -12.5,-10.1 1.2,-1 3.9,-2.7 8.5,-2.7 0,0 3,-0.1 5.3,-0.1 0.4,0 0.7,-0.3 0.7,-0.7 0,-0.4 -0.3,-0.7 -0.7,-0.7 -2.4,0 -5.3,0.1 -5.3,0.1 -6.9,0 -10.1,3.5 -10.3,3.9 -0.6,0.4 -4.6,3.2 -6.7,7.7 -1,2.2 -2.1,4.7 -2.9,7.5 -3.3,-2.1 -10.2,-9.2 -13.3,-12.5 -1,-1.1 -1.6,-1.7 -1.6,-1.7 -0.3,-0.3 -0.7,-0.3 -1,-0.1 -0.3,0.3 -0.3,0.7 -0.1,1 0,0 0.4,0.4 1,1.1 -0.9,0.4 -2.5,1.3 -4.1,2.3 -0.4,-0.2 -1.3,-0.8 -2.4,-1.6 -0.6,-0.5 -0.7,-0.8 -0.7,-2 0,-0.6 0.1,-1.3 0.1,-2.2 0,-0.5 0,-1.1 -0.1,-1.7 v -0.2 c -0.3,-2.9 6.1,-4.6 7.8,-4.8 1.9,-0.2 9,-2 9,-2 l 3.2,-1.4 c 0,0 0,0.1 0.1,0.1 0.1,0 0.1,0 0.2,0 0.2,-0.1 0.3,-0.2 0.4,-0.3 l 2.8,-1.2 c 0,0.1 0.2,0.1 0.2,0.2 0.6,0.6 1.4,1.6 2.2,2.2 0.7,0.6 1.5,0.6 2.2,0.6 0.4,0 0.8,-0.1 1.1,-0.1 1.2,-0.2 2.5,-1.2 2.6,-1.2 1.1,-0.7 0.7,-2 0.9,-2.6 0,-0.6 0.4,-2.6 0.5,-3 0.1,-0.4 0.6,-1.7 0.7,-2.1 0.3,-0.3 1.3,-0.7 1.9,-0.9 0.4,-0.3 0.9,-0.6 0.9,-0.6 h 0.1 c 0.1,0 0.4,0.2 0.6,0.2 0.3,0.1 0.6,0.3 0.6,0.3 0.2,0.1 0.9,0.3 2.1,0.3 0.7,0 1.7,-0.1 2.7,-0.4 0.4,-0.3 0.9,-0.5 1.1,-0.8 m -9.7,59.1 c 0.6,0.1 3.5,1.9 3.6,2.1 0.3,0.2 2,2 2,2 0.4,0.8 1,1.2 1.1,1.3 0.7,0.3 2,1.3 2.1,1.3 0,0.1 3,3.7 3.3,4.1 0.1,0.1 0.2,0.2 0.2,0.4 0,0 0,0 -0.1,0 l -4,-2.5 -3.2,-1.2 c -0.3,-0.1 -0.7,0 -0.9,0.3 -0.2,0.3 -0.1,0.7 0.2,0.9 1.1,0.9 2.6,3.7 2.6,3.7 0,0 1,2.3 1.5,3.5 0.1,0.2 0.1,0.4 0.1,0.4 0,0.2 0,0.2 -0.4,0.4 -0.2,0 -0.7,-0.5 -0.7,-0.5 l -1.6,-2.8 -3.4,-4.5 -0.1,-0.1 c -0.3,-0.2 -0.7,-0.2 -1.1,0.1 -0.2,0.2 -0.2,0.5 -0.1,0.7 l 0.6,2 0.8,1.9 0.8,2.9 c 0,0 0.6,2.1 0.8,2.6 v 0 0 c 0,0 -0.1,0 -0.1,0.1 -0.3,-0.1 -0.7,-0.2 -0.7,-0.2 l -3,-6.7 v 0 0 -0.1 0 0 0 -0.1 0 c 0,0 0,0 -0.1,0 -0.1,-0.1 -0.3,-0.1 -0.4,-0.1 -0.4,0 -0.7,0.2 -0.7,0.6 0,0 0,0 0,0 v 0 c 0,0 -0.1,0.7 -0.1,1.6 0,0 -0.2,0.4 -0.7,0.6 -0.5,0.4 -1.1,0.6 -1.2,0.6 -0.4,0.1 -1.2,0.2 -1.8,1 0,-0.1 0,-0.1 0,-0.1 0,-0.3 0.1,-0.6 0.1,-0.6 l 0.1,-0.1 c 0.4,-0.2 1.1,-0.6 1.5,-1 0.2,-0.3 0.2,-0.6 0.2,-0.8 0,-0.8 -0.4,-1.8 -0.6,-2.2 -0.5,-1 -2.5,-2 -2.6,-2.2 -0.3,-0.3 -2.6,-2.2 -2.6,-2.2 -1.5,-1.1 -2.4,-5.1 -2.8,-9.8 0,0 0,-0.3 0,-0.4 -0.3,-3 -0.3,-6.2 -0.4,-9.2 0,-0.4 0,-0.8 0,-1.2 0,-3.4 0.5,-6.5 1.2,-9.2 0.8,-3.1 1.9,-5.7 3,-8.1 1.7,-3.6 5.1,-6.3 6.1,-7 11.3,4.2 12.3,7.1 12.3,9 0,0.6 -0.1,1.2 -0.1,1.8 0.2,1.5 -4.7,2.5 -4.7,2.5 -0.4,0.1 -0.6,0.4 -0.7,0.7 0,1.1 -1.6,4.5 -2.6,6.5 -0.5,1 -0.8,1.7 -0.8,1.7 l -2.1,4.4 c 0,0.1 -3,6.9 -3.2,8.6 -0.1,0.1 0,0.2 0,0.2 -0.1,2.2 2.7,2 3.4,2.4 M 239.6,150 h 0.6 c 0,-2.8 -2,-13.6 -2,-20.8 0,-6.8 3.9,-11.1 4.3,-11.5 1.7,0.1 3.5,0.1 5.2,0.1 7.9,0 14.6,-0.9 16.4,-1.1 0.7,2.6 1.6,4.5 2.4,5.9 l -0.1,0.1 v 0 c 0,0 -0.1,1.1 -0.1,3 0,2.3 0.2,5.9 1.1,10.2 1.3,6.3 3,12 3.5,13.9 l -2.8,1.2 c 0.1,0 -7.1,1.7 -8.8,1.9 -1.8,0.3 -8.8,1.4 -9,6.2 0,0 0,0.2 0,0.3 v 1.6 c 0,0.9 0,1.6 0,2.2 0,1.2 0.2,2.4 1.2,3.2 0.8,0.6 1.5,1.1 2,1.4 -0.9,0.6 -1.7,1.3 -2.3,2 -1.6,1.9 -3,3.9 -3.6,5.9 -1.2,-0.8 -4.3,-2.9 -5.4,-3.1 -0.3,0 -1.6,-0.2 -3,-0.4 0,0 0,-0.1 0,-0.2 -1,-2.4 -1.2,-4.6 -1.2,-6.7 0,-2.6 0.5,-4.7 0.8,-6.1 0.8,-3.8 1.4,-7.6 1.5,-9.2 z m 34.7,-1.6 -2.1,0.9 c -0.6,-2.1 -2.2,-7.6 -3.5,-13.6 -0.9,-4.2 -1.1,-7.7 -1.1,-10 v -1.1 c 0.3,0.4 0.6,0.8 0.6,1 0.8,1.5 4.8,6.9 4.9,7 0,0 2.6,7 2.5,7.1 0.1,0 -1.4,2.3 -1.9,4.8 -0.1,0.4 -0.1,0.7 -0.1,1.1 0.1,1.1 0.3,2.1 0.7,2.8 m 30.1,-49.1 c 0.1,0.3 0.4,0.7 0.5,1 -0.4,0.2 -1.5,0.6 -2,0.5 -0.1,0 -0.2,0 -0.2,0 l -0.8,-0.4 c -0.3,-0.2 -0.8,0 -1,0.4 -0.1,0.3 0,0.8 0.3,0.9 l 0.8,0.4 c 0.3,0.1 0.6,0.1 0.9,0.1 1.2,0 2.4,-0.6 3,-0.9 0.3,-0.3 0.5,-0.6 0.5,-0.9 0,-0.4 -0.2,-0.8 -0.4,-1.1 l 0.4,-0.1 c 0,0 3.3,0.5 3.9,0.6 0.2,0 1.6,0.2 2.6,0.4 0,0 -0.1,0 -0.1,0 -0.3,0.2 -0.7,0.3 -0.7,0.3 l -3.3,0.5 c -0.2,0.1 -0.4,0.1 -0.5,0.4 -0.1,0.2 -0.1,0.4 0,0.7 l 1.1,1.7 c 0.1,0.2 0.1,0.4 0.1,0.5 0.1,0.7 -1.2,1.6 -1.2,1.6 l -0.3,0.7 c 0.1,0.4 0.1,0.8 0.1,1.1 0,2 -1.2,2.4 -1.2,2.4 -1,0.7 -1.9,0.9 -2.8,0.9 -1.8,0 -3.7,-1 -5.2,-1.9 -0.6,-0.3 -1.1,-0.6 -1.6,-0.9 -1.2,-0.5 -1.3,-1.2 -1.3,-2.4 0,-0.6 0,-1.2 0,-1.9 v 0 c 0,-0.4 0,-0.4 0,-0.4 0,-1.9 0.8,-3.6 1.3,-4.2 0.2,-0.3 2.2,-1.2 2.9,-1.5 l 2.1,0.6 z m -3.1,-2.3 -1.1,-0.3 h -0.3 c -0.1,0.1 -2.8,0.9 -3.7,2.1 -0.7,0.9 -1.6,2.7 -1.6,5.1 v 0.2 c -0.1,0 0,0.1 0,0.1 0,0.7 0,1.3 0,2 -0.1,1.1 0.2,2.4 1.3,3.3 -1.8,-0.1 -3.9,-0.2 -4.2,-0.2 -6.3,-0.4 -8.4,-6.3 -8.4,-6.3 -0.2,-0.4 -0.3,-1 -0.3,-1.6 0,-0.9 0.2,-1.9 0.3,-2.1 l 3.7,-1.9 c -0.1,0.1 6.5,-2.2 10.1,-3.8 0,0 0.1,-0.1 0.1,-0.1 0.1,0.1 0.1,0.2 0.2,0.3 0.1,-0.2 2.7,1.9 3.9,3.2 m -2.9,-9.9 c -0.3,0.4 -0.7,0.8 -1.2,1 l -3.7,2.5 c -0.3,0.3 -0.4,0.6 -0.2,1 0.2,0.3 0.7,0.4 1,0.2 l 3.7,-2.4 c 0.2,-0.1 0.3,-0.2 0.5,-0.4 0,0.8 -0.1,1.7 -0.2,2.2 -0.3,0.2 -1,0.6 -1.9,1 -3.5,1.6 -10.1,3.9 -10.1,3.9 l -4.5,2.2 -4.9,2.4 c 2.7,-2.9 3.8,-7.9 4.6,-10.1 0.7,-2 1.8,-2.2 3.6,-3.1 1.1,-0.6 2.4,-1.9 3.8,-3.7 0.2,0.2 0.4,0.2 0.6,0.2 v 0 l 10.3,-2.7 c 0,0 0,0.3 0,0.7 0.2,1.2 -0.1,3.5 -1.4,5.1 m 20.9,-17 c -0.4,1.1 -2.5,6.1 -3.1,8.6 -0.2,0.7 -0.2,0.7 -0.2,0.7 0,0 -0.2,-0.1 -0.4,-0.2 -0.1,-0.1 -0.3,-0.2 -0.3,-0.2 -0.2,-0.2 -0.6,-0.3 -0.8,-0.1 v 0 c -0.1,0 -0.1,0.1 -0.2,0.1 v 0 0 c 0,0 -0.8,0.8 -1,1 0,0.1 -0.7,0.1 -1.1,0.1 L 311,78.8 c -0.2,-0.3 -0.7,-0.3 -1,0 -0.4,0.2 -0.4,0.7 -0.1,1 l 1,1.1 c -0.1,0.1 -0.2,0.2 -0.3,0.3 v 0.1 c -0.8,0.3 -1.4,0.8 -1.6,1.8 -0.1,0.5 0.2,0.3 -0.4,0.5 v 0 c -0.7,0 -3.3,-1.3 -3.3,-1.3 l -4.2,-2.2 -0.6,-0.3 -0.5,-0.1 -10,2.6 c 0.7,-1.2 1.3,-2.6 1.8,-4 0.4,-1.2 0.6,-2.6 0.6,-3.9 0,-0.8 -0.1,-1.5 -0.2,-2.2 0.2,0.3 0.4,0.5 0.4,0.6 0.3,0.9 1.1,0.9 1.6,0.9 0.8,0 1.6,-0.2 2.3,-0.1 0.4,0 0.6,0 0.7,0.1 0.6,0.3 1.1,0.3 1.8,0.3 1.8,0 4.2,-0.6 4.2,-0.6 2.5,-0.1 4.2,-1.9 4.9,-2.3 0.8,-0.6 2.3,-1.8 2.6,-1.9 h 0.1 0.1 0.3 c 0.7,0 1.4,-0.3 2.2,-1.1 0.7,-0.7 0.9,-1.7 1,-2.5 l 1.9,1.4 c 2,1.3 2.7,1.3 3.6,1.7 -0.2,0.6 -0.4,1 -0.6,1.4 m -32.5,-10 c 0,0 0.2,-0.1 0.5,-0.1 0.3,-0.1 0.6,-0.1 0.6,-0.1 0.4,-0.1 0.6,-0.4 0.6,-0.8 v -0.3 -0.1 c 0,-0.4 1.4,-1.4 3.1,-1.9 1.7,-0.5 3.5,-0.8 3.5,-0.8 0.4,0 0.6,-0.3 0.6,-0.7 0,-1.7 2.7,-2.5 5.7,-2.4 2.5,0 4.8,0.4 4.8,0.4 0.7,-0.1 1.2,-0.1 1.7,-0.1 2.2,0 4.3,0.8 6,1.6 1.6,0.8 2.7,1.6 2.7,1.6 l 0.6,0.1 c 0.3,0 0.5,-0.1 0.7,-0.1 3,-0.1 4.8,3.9 4.8,3.9 l 0.5,0.4 c 1.6,0.5 2.1,1.9 2.1,3.5 0,1.4 -0.4,2.7 -0.5,3.1 -0.2,0.5 0.3,0.7 -1.6,1.2 h -0.3 c -0.4,0 -1,-0.2 -1.6,-0.4 -1.9,-0.8 -1.9,-0.4 -4.2,-1.9 L 314.2,64 c -0.2,-0.2 -0.6,-0.2 -0.8,-0.1 -0.2,0.2 -0.4,0.4 -0.4,0.7 0,0 0,0.2 0,0.5 0.1,0.7 -0.1,1.9 -0.6,2.3 -0.8,0.7 -0.9,0.7 -1.2,0.7 h -0.3 v 0 c -1.4,0.1 -2.6,1.6 -3.4,2 -1.1,0.7 -2.3,2 -4.3,2.1 -0.1,0 -2.4,0.5 -4,0.5 -0.6,0 -1.1,-0.1 -1.2,-0.1 -0.5,-0.3 -0.9,-0.3 -1.4,-0.3 -0.8,0 -1.7,0.2 -2.3,0.2 h -0.4 c -0.3,-0.8 -1.1,-1.9 -2.4,-2.7 -0.1,-0.2 -0.2,-0.5 -0.3,-0.7 -0.8,-1.7 -2.1,-3.3 -3.9,-4.7 -0.6,-0.5 -1.3,-0.9 -2,-1.3 V 63 63 c -0.1,-0.2 -0.1,-0.4 -0.1,-0.4 -0.1,-1.1 1.1,-2.3 1.6,-2.5 m -9.6,2.4 c 0.1,0 0.2,-0.1 0.3,-0.1 1.4,0.1 4,0.4 6.6,1.7 0.8,0.4 1.5,0.8 2.3,1.4 1.6,1.2 2.7,2.7 3.4,4.2 0.8,1.6 1.1,3.2 1.1,4.9 0,1.1 -0.1,2.3 -0.5,3.4 -0.5,1.7 -1.4,3.3 -2.2,4.6 -1.3,1.9 -2.9,3.4 -3.6,3.7 -1.4,0.7 -3.4,1.2 -4.3,3.9 -0.8,2.4 -2.1,7.8 -4.4,9.8 0.1,-0.2 -0.5,0.3 -0.4,1.1 0,0.2 0,0.5 0.1,0.9 0.1,0.3 0.2,0.8 0.4,1.3 1,2.3 4,8.3 4,12.6 0.1,0 0,0.1 0.1,0.3 -0.1,-0.1 -0.1,0.1 -0.1,0.1 0,4.7 0.9,9 1.9,12.6 1.4,3.7 2.8,7.9 4.8,8.5 0.7,0 2.4,0.6 2.7,1.1 0.9,0.9 3.2,1.8 3.9,2.2 0.2,0 0.7,0.3 0.9,0.5 -0.1,0.1 -0.2,0.1 -0.4,0.2 -0.8,0.3 -1.6,0.4 -2.2,0.4 -1,0 -1.6,-0.2 -1.6,-0.2 0.1,0.1 -0.8,-0.6 -1.8,-0.6 h -0.1 c 0,0 -0.1,0 -0.2,0 -0.7,0.2 -1.1,0.7 -1.3,0.8 -0.1,0.1 -1.4,0.4 -2.2,1.2 -0.1,0.1 -0.1,0.2 -0.2,0.2 v 0 c 0,0 0,0.1 0,0.1 v 0.1 c -0.1,0.1 -0.1,0.2 -0.1,0.2 -0.2,0.7 -0.5,1.6 -0.7,2 -0.2,0.6 -0.5,2.4 -0.5,3.3 0,0.8 -0.2,1.5 -0.2,1.5 -0.1,0.1 -1.6,1 -1.9,1 -0.3,0 -0.7,0 -1,0 -0.6,0 -1.1,-0.1 -1.3,-0.3 -0.6,-0.5 -1.4,-1.6 -2.2,-2.2 -0.1,-0.1 -0.2,-0.3 -0.4,-0.4 -0.4,-0.6 -0.9,-1.5 -0.9,-2.7 0,-0.3 0,-0.6 0.1,-0.8 0.4,-2.3 1.7,-3.8 1.9,-5 v -0.1 c -0.1,-1.1 -2.7,-7.7 -2.7,-7.8 -0.1,-0.2 -4.2,-5.8 -4.8,-6.9 -0.6,-1.2 -2.8,-3.5 -4.3,-9.4 -0.5,-2 -0.9,-4.3 -1.2,-7.2 0,-0.2 -0.4,-1.3 -0.4,-3.7 0,-0.4 0,-0.6 0,-0.9 0,-0.7 0.1,-1.4 0.2,-2.2 0.6,-4.5 0.4,-10.5 0.5,-11.5 0,-0.2 0.1,-0.7 0.1,-1.4 0.3,-2.1 0.9,-5.9 1.9,-8.5 1.2,-3.3 6.3,-11.7 6.3,-11.7 0.2,-0.4 0.1,-0.8 -0.2,-1 -0.1,-0.1 -0.2,-0.1 -0.3,-0.1 -0.3,0 -0.5,0.1 -0.6,0.4 0,0 -5,8.3 -6.4,12 -1,2.5 -1.5,5.9 -1.8,8.1 h -0.1 v 0 c -0.4,0.1 -0.8,0.2 -1.3,0.2 -2.6,0 -5.8,-3.1 -8.7,-6.8 -1,-1.4 -1.4,-2.5 -1.4,-3.6 0,-2.6 2.1,-5.5 5.5,-9.1 3.6,-4.6 17,-6.2 19.9,-6.3 m -40.7,27.6 c 0,-0.9 0.5,-5.9 1.1,-9.5 0.1,-0.9 0.3,-1.6 0.4,-2.2 0.8,-3.1 3.4,-4.2 5.6,-5.4 2.3,-1.4 4.6,-5.9 6.6,-7.1 2,-1.3 8.1,-2.5 12.8,-3.5 1.5,-0.3 3.6,-0.5 5.7,-0.5 h 1.4 c -5,0.9 -11.2,2.6 -14.1,5.8 -3.4,3.7 -5.9,6.7 -5.9,10.1 0,1.5 0.6,3 1.7,4.5 3,3.7 6.2,7.3 9.8,7.3 0.4,0 0.8,0 1.2,-0.1 0,0.3 0,0.5 -0.1,0.7 -0.1,1.2 0.1,6.9 -0.5,11.4 0,0.5 -0.1,1.1 -0.1,1.6 0,0 -0.1,0 -0.1,0 0,0 -0.2,0.1 -0.4,0.3 v 0 0 l -6.5,-2.2 c -1.1,-0.3 -7.2,-2.8 -8.9,-3 -1,0 -4.4,-1.3 -5.6,-2.2 -1.2,-0.6 -4,-5 -4.1,-6 0,0.1 0,0 0,0 m -13.8,11.6 c -0.4,-0.2 -1.1,-2.3 -1,-3.7 0,-0.8 0.2,-1.3 0.3,-1.4 1.3,-1.2 4.6,-5.1 4.6,-5.1 4,-7.2 7.9,-9.4 9.4,-10.1 -0.5,3.4 -0.9,7.4 -1,8.5 0,0.1 0,0.2 0,0.2 v 0.1 c 0.2,1.8 3,5.9 4.8,7.2 1.6,1 4.8,2.3 6.4,2.4 1,0 7.3,2.6 8.5,2.9 l 5.5,1.8 c -1.6,1.2 -4.2,3 -6.9,4.8 -1.1,0.7 -2.1,1 -2.9,1 -2.8,0.1 -5.3,-2.5 -7.1,-3.8 -0.9,-0.6 -2.1,-0.9 -3.3,-0.9 -2.7,0 -6,0.9 -8.9,1.4 -0.2,0 -0.5,0 -0.7,0 -1.9,0 -3.7,-1.2 -5,-2.5 0,0 -0.1,-0.1 -0.1,-0.1 -0.1,-0.1 -0.2,-0.2 -0.2,-0.2 -1.2,-1 -1.9,-2 -2.4,-2.5 m 1.5,6.2 c 0,-0.9 0.2,-1.6 0.5,-2 1.4,1.3 3.4,2.5 5.7,2.5 0.3,0 0.6,0 0.9,-0.1 3.1,-0.5 6.4,-1.3 8.7,-1.3 1.1,0 1.9,0.2 2.4,0.6 1.7,1.2 4.4,4 8,4.1 1.1,0 2.4,-0.4 3.7,-1.2 3.3,-2.2 6.4,-4.4 7.9,-5.4 0,0 0.1,-0.1 0.1,-0.1 0,2.4 0.4,3.8 0.5,3.8 0.2,2.4 0.6,4.6 1,6.5 -2,0.3 -8.5,1.1 -16.1,1.1 -1.8,0 -3.7,0 -5.7,-0.1 -2.9,-0.2 -6,-0.5 -8.8,-1.1 -1.6,-0.3 -3.1,-0.7 -4.6,-1.2 0,0 -0.1,0 -0.1,-0.1 -0.7,-0.2 -1.4,-0.4 -2.1,-0.7 -1.6,-2.4 -2,-4.1 -2,-5.3 m -11,57.1 -0.1,-0.1 -4.7,-3.3 c -0.6,-0.6 -0.8,-1.1 -0.8,-1.5 0,-0.7 0.5,-1.3 0.5,-1.4 0,0 6.6,-6.7 9.7,-13.3 1.7,-5.2 2.2,-17.4 2.3,-17.4 0.7,-6 2.3,-9.5 3.7,-11.4 0.9,-1.4 1.7,-1.9 2.1,-2.1 0.4,0.1 0.8,0.3 1.1,0.4 -1.5,1.7 -5.2,6.7 -5.4,14.6 l -1.7,20.9 c 0,0.1 0,0.2 0,0.2 0,0.2 -0.1,1.2 -1.2,4.1 0,0 -1.7,3.8 -2.7,5.9 -0.7,1.6 -0.8,1.7 -0.9,1.9 -0.4,0.9 -1.6,2.2 -1.9,2.5 m 7.1,3.1 c -0.8,-0.1 -1.9,-0.4 -3,-0.7 -0.9,-0.2 -1.7,-0.5 -2.4,-0.8 -0.3,-0.1 -0.6,-0.3 -0.7,-0.3 h -0.1 c 0,-0.1 -0.1,-0.2 -0.1,-0.2 0.5,-0.5 1.6,-1.7 2.1,-2.6 0.2,-0.3 0.3,-0.5 1,-2.1 1.1,-2.2 2.7,-6 2.7,-6 1.1,-2.9 1.3,-4.1 1.3,-4.7 v -0.2 l 1.6,-20.8 c 0.2,-8.6 4.9,-13.6 5.5,-14.3 1,0.3 2,0.5 3,0.7 -1.9,1.7 -5.9,6.5 -5.9,15.1 0,0 0,0.2 0,0.3 0,4.4 0.4,9.5 0.4,14.4 0,6.7 -0.6,13.1 -2.9,17.3 -0.4,0.6 -0.7,1 -1,1.6 0.3,0.2 -1.2,1.7 -1.5,3.3 m 9.5,3.6 c -0.3,-0.2 -0.9,-0.7 -1.4,-1.3 -1.7,-1.8 -3.6,-1.6 -6.2,-1.7 -0.4,-0.1 -0.3,0 -0.4,-0.2 -0.1,-0.6 1.4,-2.6 1.4,-2.6 0.5,-0.6 0.8,-1.2 1.1,-1.8 2.6,-4.6 3.1,-11.2 3.1,-17.9 0,-5 -0.3,-10.1 -0.4,-14.4 v -0.3 c 0,-10.6 6.3,-14.7 6.2,-14.7 0,0 0,0 0.1,0 2.4,0.4 4.8,0.7 7.3,0.9 -1.3,1.8 -3.9,5.9 -4,11.6 0,7.4 2.1,18.2 2.1,20.8 0,0 0,0.2 0.1,0.4 -0.1,1.1 -0.7,5 -1.5,8.7 -0.3,1.3 -0.8,3.5 -0.8,6.3 0,2 0.3,4.3 1.2,6.7 -0.7,-0.1 -1.4,-0.2 -2,-0.2 v 0 h -0.2 c -0.2,0 -0.3,0 -0.5,0.1 v 0 c -0.6,0.1 -1.1,0.1 -1.7,0.1 -2,-0.1 -3.5,-0.5 -3.5,-0.5 m 7.2,14.6 c -0.1,0.1 -0.2,0.2 -0.4,0.4 -1.1,0.9 -3.3,2.3 -4,2.6 v 0 c -3.9,-0.1 -4.5,-2.1 -4.6,-5 0,-1.9 0.5,-3.9 0.6,-5.3 0.1,-2.2 4.7,-5.1 6.3,-5.5 0.2,-0.1 0.4,-0.1 0.6,-0.1 h 0.1 c 0.9,0 2.1,0.2 3.3,0.3 1.4,0.2 2.7,0.4 3.1,0.4 0,-0.1 1.4,0.7 2.7,1.6 1.1,0.7 2.2,1.4 2.4,1.6 v 0.2 0.3 c 0,1.6 0.8,2.9 1.6,3.9 -1.5,-0.1 -2.9,-0.1 -3.4,-0.1 h -0.1 v 0 c -1.8,0.1 -6.8,3.1 -8.2,4.7 m 1.7,0.9 c 0,-0.2 -0.1,-0.3 -0.2,-0.4 1.3,-1.2 5.9,-3.8 6.6,-3.8 v 0 0 c 1.1,0.1 3.3,0 5.3,0.2 1.4,0.1 2.7,0.5 2.7,0.6 0.9,1 1.3,4.9 2.3,6 0.6,0.5 5,4.1 5,4.1 0.3,0.2 0.8,0.2 1,-0.1 0.3,-0.3 0.2,-0.8 -0.1,-1 0,0 -4.5,-3.7 -5,-4.1 -0.2,0.1 -1,-4.3 -2.1,-5.8 -0.7,-0.8 -1.9,-1 -3.2,-1.2 v 0 c -0.8,-0.6 -2.5,-2.3 -2.5,-4 0,0 0,0 0,-0.1 0,-0.2 0.1,-0.5 0.1,-0.8 0.4,-1.8 1.8,-4.1 3.5,-6.1 0.6,-0.7 1.7,-1.6 2.9,-2.4 1.9,-1.2 4,-2.3 4.8,-2.7 3.4,3.6 10.2,10.5 13.6,12.6 v 0 c -0.6,2.7 -1.1,5.6 -1.1,8.9 0,0.3 0,0.8 0,1.2 0.1,2.9 0.2,6.1 0.4,9.1 -2.3,2 -5.7,2.5 -9.6,2.5 -2.7,0 -5.7,-0.3 -8.6,-0.4 -6.3,-0.4 -11.6,-3.8 -13.6,-5.8 -0.2,-0.2 -0.4,-0.4 -0.5,-0.5 -1.2,-1.6 -1.7,-6 -1.7,-6 M 307,221 c 0.5,0.7 1.5,2 2.5,3.8 0.5,0.9 0.8,2.5 0.8,4.1 0,2.1 -0.3,4.2 -0.5,5.3 0,1.4 -1,1.5 -3.7,4.6 -1.1,1.2 -3,1.7 -5,1.7 -2.1,0 -4.2,-0.5 -5.5,-0.9 -2.9,-0.8 -9.3,-2.1 -13.1,-2.6 -3.4,-0.3 -10.8,-4.7 -12.6,-5.6 -1.6,-0.7 -10.3,-7.9 -11.2,-8.8 -1.3,-1.1 -3.7,-1.6 -4.7,-1.8 0,0 0,0 -0.1,0 -0.1,0 -0.1,0 -0.1,0 -1.9,0.1 -7.4,4.3 -8.1,4.7 -0.6,0.3 -1.5,1 -1.9,2 -0.1,0.2 -0.2,0.6 -0.2,0.7 0,0.7 0.3,1.1 0.5,1.6 0.5,1.1 1.7,1.1 1.9,1.3 0.4,0.2 1.1,0.3 1.7,0.5 -0.1,0.2 -0.2,0.3 -0.4,0.5 -0.2,0.2 -0.3,0.4 -0.5,0.5 -0.1,0.2 -0.1,0.1 -0.1,0.1 -0.9,0.7 -0.7,1.4 -0.7,1.7 -0.1,0.1 -0.6,0.2 -0.7,0.2 0.1,0 0,0 -0.1,0 -0.3,0 -0.8,-0.1 -1.2,-0.1 -0.2,0 -0.3,0 -0.3,0 v 0 c -0.3,0 -1.4,-0.1 -1.5,-0.1 0,0 0,0 0,0 -0.1,-0.1 -0.3,-0.3 -0.5,-0.5 -0.1,-0.1 -0.1,-0.2 -0.1,-0.2 -0.4,-1 -3.3,-6 -3.4,-7 l -0.2,-0.1 h 0.2 c 0,-1.2 2.2,-6.9 3.3,-9.3 1.3,-2.8 1.3,-5.7 1.4,-7.1 0,-0.8 0.6,-1.5 0.9,-1.9 5.6,4.8 10.6,10.4 17.4,13.6 6.8,3.2 21.5,9.1 23.2,9.6 0.3,0.2 0.9,0.4 1.7,0.7 2.9,1.2 8.3,3.6 8.9,4.2 0.3,0.3 0.7,0.3 1,0 0.3,-0.3 0.3,-0.7 0,-1 -0.7,-0.7 -3.2,-1.9 -5.6,-2.9 h 0.6 c 11.9,0.1 13.2,-6 15.4,-10.8 0.3,-0.1 0.5,-0.5 0.6,-0.7 m -4.2,-14 c 0.9,2.8 1.7,5.2 1.8,5.6 0.4,1 1.6,2.4 1.6,4.9 0,0.4 -0.1,0.9 -0.1,1.4 -0.1,0.2 -0.1,0.4 -0.2,0.6 -0.2,0.6 -0.4,1.1 -0.7,1.8 -2.6,5.1 -2.7,9.8 -14.1,10 -0.4,0 -0.9,0 -1.5,0 l -3.1,-0.3 v 0 h -0.1 c -0.6,-0.2 -1.2,-0.5 -1.5,-0.6 -1.5,-0.5 -16.3,-6.4 -23,-9.6 -6.5,-3.1 -11.5,-8.6 -17.2,-13.6 -0.2,-0.1 -0.2,-0.2 -0.3,-0.3 -2.9,-2.7 -3.5,-6.5 -3.5,-9.1 0,-0.9 0.1,-1.6 0.2,-2.2 2.6,2.2 7.6,5 13.6,5.4 2.9,0.2 5.9,0.5 8.7,0.5 3.6,0 7.1,-0.5 9.7,-2.3 0.4,4.2 1.1,7.9 3.2,9.6 0,0 2.3,1.9 2.5,2.1 0.2,0.2 0.8,0.6 1.3,1 0.3,0.2 0.6,0.4 0.7,0.6 0.2,0.2 0.2,0.2 0.2,0.2 0.1,0.3 0.5,1.3 0.5,1.7 -0.2,0.1 -1.2,0.6 -1.6,1.2 -0.1,0.2 -0.3,0.7 -0.3,1.2 -0.1,0.5 0.1,1.2 0.8,1.6 0,0 0.2,0.1 0.6,0.2 0.4,0 0.8,-0.2 1.1,-0.6 0.2,-0.4 0.7,-0.5 1,-0.6 0.5,-0.2 2.1,-0.6 2.8,-1.8 l 2.4,5 c 0.4,0.3 1,0.7 1.7,0.7 0.3,0 0.5,-0.1 0.7,-0.1 0.3,-0.3 0.9,-0.7 0.9,-1.4 0,-0.2 0,-0.4 -0.1,-0.5 -0.1,-0.4 -0.7,-2.5 -0.7,-2.5 l -0.7,-2.5 0.5,0.7 1.7,2.9 c 0.2,0.1 0.7,1.1 1.8,1.2 0.2,0 0.3,0 0.4,-0.1 0.4,-0.2 1.4,-0.6 1.4,-1.7 0,-0.3 -0.1,-0.6 -0.2,-0.9 -0.5,-1.2 -1.5,-3.6 -1.5,-3.6 0,0 -0.5,-1 -1.2,-2 l 0.5,0.2 4.1,2.6 0.4,0.1 c 0.1,-0.1 0.8,0 1.4,-0.7 0.2,-0.3 0.3,-0.6 0.3,-0.8 0,-0.6 -0.4,-1.1 -0.6,-1.4 -0.3,-0.3 -3.4,-4.2 -3.4,-4.2 -0.1,-0.1 -1.4,-1.1 -2.3,-1.5 0,0 -0.5,-0.5 -0.4,-0.6 -0.4,-0.9 -2,-2.1 -2.4,-2.6 -0.6,-0.4 -3,-2 -4.3,-2.3 -1,-0.2 -2.6,-0.7 -2.6,-1.1 v -0.1 0 c 0.4,-1.7 3.1,-8.3 3.1,-8.3 l 2.1,-4.3 c 0,0 0.2,-0.5 0.6,-1.2 0.6,0.6 2.7,2.6 6.7,2.6 0.3,0.6 3.1,6.5 3.3,8.3 0.1,1.5 1.9,7 3.3,11.5 m -0.7,-7 c -0.6,-2.2 -1.2,-4 -1.3,-4.7 -0.3,-2.1 -2.5,-6.7 -3.2,-8.2 5.1,-1 9,-3.9 10.8,-6.5 v 0 c 2.6,-0.4 4.5,-1.7 5.9,-3.4 -0.3,2.1 -0.8,4.6 -2.2,8.2 0,0 -1.1,3 -2.4,5.6 -0.5,2.4 -5.8,7.4 -7.6,9 m 5.3,-3.1 c 1.7,-1.8 3.3,-3.9 3.7,-5.4 0.5,-0.9 0.8,-1.7 1.2,-2.6 0.1,4.3 0.5,10.7 0.7,13.6 -3,-2.9 -5.5,-5.5 -5.6,-5.6 m 35.3,4.3 c -0.1,0.7 -0.1,1.6 -0.1,2.5 0,0.5 0,1 0.1,1.5 -0.6,-0.2 -1.2,-0.3 -1.8,-0.3 -3.2,0.1 -5.7,2.4 -8.9,3.5 -3.1,1 -6.4,1.4 -8,1.5 1.2,-3.1 4.4,-12.2 5.3,-19.7 0,0 0.5,-4.6 0.9,-11 0,-0.3 -0.3,-0.7 -0.6,-0.7 -0.4,0 -0.8,0.3 -0.8,0.7 v 0 c -0.5,6.3 -0.9,10.9 -0.9,10.9 -0.8,7.7 -4.4,17.4 -5.4,19.9 -1.7,-0.5 -4.8,-3.2 -7.8,-5.9 v -0.1 0 c 0,0 -0.8,-11.4 -0.8,-16.6 0,-1 0.1,-1.8 0.1,-2.1 v -0.1 c 1.8,-5.2 2,-8.3 2.7,-10.9 v -0.2 c 1.3,-2.8 1.7,-5.9 1.7,-7.3 v 0 c 0,-0.8 -0.7,-3.1 -0.7,-3.1 0,0 -0.2,-0.6 -0.3,-1.4 l 1.2,-1.1 c 0,0 0,0 0.1,0 0.4,0.6 0.7,1.2 1.2,1.7 1.2,1.3 3.9,2.6 6.5,2.6 0.5,0 1.1,-0.1 1.5,-0.2 1.4,-0.4 1.8,-1.3 1.9,-1.2 1,-0.3 1.7,-1.1 2.1,-1 1,-0.3 1.6,-1.2 1.9,-1.8 0.2,0 0.4,0.1 0.6,0.1 0.7,0 2.1,-0.2 2.2,-1.7 0.1,-1.2 0.1,-3.8 0.2,-4.8 0.6,-0.4 1.8,-1.6 2.3,-3.6 1.2,-0.1 3.3,-0.3 3.3,-0.3 2.2,-0.6 2.8,-2.4 2.8,-3.9 0,-0.9 -0.2,-1.7 -0.4,-2.3 -0.5,-1.5 -2.4,-2.7 -3.4,-3.3 0.2,-0.5 0.4,-1 0.4,-1.4 -0.1,-1.5 -1.1,-2.2 -1.1,-2.3 -0.4,-1.4 -1.7,-2.1 -2.8,-2.4 l -0.3,-13.2 c 2.4,-0.6 4.8,-2.1 6.2,-4.9 l 0.3,0.2 c 0,0 0.2,0 0.6,0 0.5,0 1.3,-0.1 2.2,-0.4 1.5,-0.6 2.7,-1.9 2.7,-1.9 0.7,-0.5 1.1,-1.2 1.2,-1.9 l 8.2,3.9 c 0.1,0.5 0.2,0.9 0.2,1.3 v 0.3 c -0.1,0.2 -0.1,0.5 -0.1,0.5 0.1,1.6 1.2,2.3 1.2,2.3 0.1,0.1 0.2,0.2 0.3,0.2 v 0.4 c 0,1.2 0.1,2.4 0.3,3.9 0,0 0.3,2.5 1.9,4.7 0,0.1 0,0.1 -0.1,0.1 0,0 -0.8,2.2 -1.2,2.4 -1,0.8 -4,4.6 -4.1,8.2 0,0.3 0,0.6 0.1,1 0.7,3.2 2.3,8.5 2.3,8.5 0.1,0.4 0.4,0.5 0.8,0.5 l 0.6,-0.1 c -0.4,1.1 -1.2,3.1 -1.5,3.3 -0.4,0.4 -2.9,2 -4.9,7.7 -0.4,-0.2 -1.1,-0.4 -1.9,-0.4 -1.1,0 -2.4,0.4 -3.8,1.7 -1.8,1.7 -2.4,2.2 -2.5,2.2 0,0.1 -0.1,0.1 -0.1,0.1 v 0 c 0,0 0,0 -0.1,0.1 -0.7,-1.6 -0.9,-3.1 -0.9,-4.4 -0.1,-7 7.9,-10.2 7.9,-10.2 0.3,-0.2 0.5,-0.6 0.4,-1 -0.2,-0.4 -0.6,-0.5 -0.9,-0.4 0,0 -2.4,1 -4.7,3.1 -0.1,-1.7 -0.3,-4.6 -0.4,-6.9 0.2,-0.4 1.4,-4.1 3,-8 1.6,-4.1 4,-8.5 5,-8.7 0.4,-0.2 0.6,-0.6 0.4,-1 -0.1,-0.4 -0.6,-0.6 -0.9,-0.4 -2.3,1.1 -4.9,6.9 -6.7,11.6 0.6,-3.3 1.6,-7.9 2.6,-12.1 0.1,-0.4 -0.2,-0.7 -0.6,-0.8 -0.4,-0.1 -0.7,0.1 -0.8,0.5 -1.6,7 -3.3,15 -3.4,16.8 -0.1,0.4 -0.1,0.9 -0.1,1.4 0,3.2 0.4,8.5 0.5,9 -1.5,1.7 -2.7,4 -2.7,7 0,1.6 0.3,3.4 1.2,5.4 0,0.1 0.1,0.2 0.1,0.3 -1.1,1.5 -1.1,1.6 -1.4,2.2 -0.2,0.8 -1.2,4.7 -1.2,5.7 v 0 0 c 0,0.2 0,0.7 -0.1,1 -0.1,0.2 -0.1,0.4 -0.1,0.5 v 0 c -0.1,0.1 -1.1,0.7 -1.5,0.9 -0.4,-0.7 -1.4,-2.1 -2.5,-2.5 -0.2,-0.1 -0.6,-0.1 -0.9,-0.1 -0.4,0 -1.3,0.1 -1.4,1.1 0,0.1 0,0.3 0.1,0.4 -0.4,0.1 -1.1,0.2 -1.2,1.3 0,0.7 0.4,1.1 1.1,1.6 l 2.1,1.9 c 0.1,0 2,1.7 3.5,2.1 0.3,0.1 0.8,0.1 1.2,0.1 0.8,0 1.7,-0.2 2.4,-0.6 -0.1,0.3 -0.2,0.6 -0.2,0.6 -0.6,0.9 -1.2,2.8 -1.2,3.9 0,0.2 0,0.5 0.2,0.8 0,-0.2 0.2,1.5 1.8,1.7 0.6,0 1.1,-0.4 1.5,-1 l 0.3,-0.4 c -0.6,2 -1.2,3.6 -1.6,4.4 -1.5,3.3 -3.5,5.7 -3.6,8.3 m 7.5,-28.3 c -0.4,-0.1 -0.8,0.1 -0.9,0.5 -0.1,0.4 -1,1.5 -1.1,3.4 0,0.9 -0.9,0.9 -1.1,0.9 -0.3,-0.1 -0.4,-0.4 -0.5,-1.3 0,-0.7 0.1,-1.5 0.2,-1.9 0.1,-0.4 -0.2,-0.7 -0.6,-0.8 -0.4,-0.1 -0.7,0.2 -0.8,0.6 0,0.3 -0.2,1.2 -0.2,2.1 0,0.7 0.2,1.7 0.8,2.3 0,0.3 -0.1,1.1 -0.3,2 -0.1,0.1 -0.2,0.2 -0.3,0.3 -0.6,0.9 -1.7,1.2 -2.6,1.2 -0.4,0 -0.7,0 -0.9,-0.1 -0.9,-0.2 -2.9,-1.8 -2.9,-1.8 l -2.2,-1.9 c -0.2,-0.2 -0.3,-0.3 -0.4,-0.4 0.3,-0.1 0.9,-0.2 1.2,-1.2 v -0.3 c 0.1,0 0.3,0 0.4,0.1 0.1,-0.1 1.9,2.1 2,2.2 0.4,0.4 0.4,0.3 0.6,0.4 1.1,-0.1 2.2,-1.1 2.6,-1.4 0.7,-0.8 0.6,-1.8 0.7,-2.6 v 0 0 c 0,-0.4 1,-4.7 1.1,-5.1 0.3,-0.7 0,-0.2 2.1,-3 0.1,-0.1 0.6,-0.5 2.6,-2.4 1.1,-1.1 2.1,-1.3 2.8,-1.3 0.6,0 1.1,0.2 1.4,0.4 -0.9,2.9 -1.8,6.7 -2.4,11.8 0,0 -1.2,4.1 -2.4,8.4 -0.1,0 -0.1,0.1 -0.2,0.1 l -1.4,2.3 -1.3,1.8 c -0.3,0.4 -0.4,0.4 -0.4,0.4 -0.1,0.1 -0.1,0 -0.3,-0.4 -0.2,-0.2 -0.2,-0.5 -0.3,-0.5 l -0.2,-0.2 h 0.2 c -0.1,-0.5 0.7,-2.7 1,-3.2 0.4,-0.7 0.5,-1.7 0.8,-3 0.1,-0.9 0.3,-1.8 0.3,-2.3 0.6,-0.1 2.1,-0.5 2.2,-2.3 0.1,-1.5 0.7,-2 1.1,-3 0.2,-0.3 -0.1,-0.7 -0.4,-0.8 m -6.3,74.8 -20.4,-6.9 v -4.2 l 20.4,6.7 z m 40.9,-11.4 -39.5,11.6 v -4.7 L 384.8,232 Z m -25.5,-1.5 c 0.4,-0.1 0.6,-0.4 0.5,-0.8 l -0.9,-6.1 3.4,-0.8 20.2,4.2 -37.9,10.8 -19.3,-6.3 19.6,-4.6 -1.2,6.3 c -0.1,0.4 0.1,0.7 0.5,0.8 0.4,0.1 0.7,-0.1 0.9,-0.4 l 2.7,-7.3 8.5,-2 2.1,5.9 c 0.2,0.2 0.6,0.4 0.9,0.3 m -10.8,-6 4.1,-10.4 3.2,8.7 z m 8.8,-2 -0.1,0.1 -3.9,-10.7 c -0.1,-0.3 -0.4,-0.4 -0.7,-0.4 -0.3,0 -0.6,0.2 -0.7,0.4 l -5.2,13.1 h -0.1 l 1.3,-9.3 v -0.1 c 0.3,-0.6 0.8,-1.7 1.1,-2.9 0.4,-1.7 1.6,-6 2.8,-7.9 0.7,-1.1 1.9,-1.5 2.6,-1.7 l 0.1,1.8 z M 369,172.6 c -5.1,9.4 -12.3,17.9 -12.9,19.4 -0.2,0.8 -0.5,1.7 -0.5,2.7 0,1.4 0.3,3.4 1.1,6.7 0.2,0.7 0.2,1.5 0.2,2.1 0,1.5 -0.4,2.9 -0.9,3.9 l -0.1,-1 c 0,-0.4 -0.4,-0.6 -0.8,-0.6 -0.1,0 -2.7,0.2 -4.4,2.6 -1.4,2.2 -2.6,6.5 -3,8.4 -0.2,0.9 -0.6,1.8 -0.9,2.4 -0.3,-0.3 -0.4,-0.8 -0.4,-1.2 v 0 l 0.1,-0.2 -0.6,-9.5 -0.3,-0.5 c -0.5,-0.3 -0.8,-0.7 -1,-1.1 0,-0.1 -0.1,-0.1 -0.1,-0.1 0,0 0,-0.3 -0.2,-0.4 -0.2,-0.7 -0.3,-1.5 -0.3,-2.3 0,-0.8 0.1,-1.6 0.1,-2.4 -0.1,-1.8 1.8,-4.3 3.3,-7.5 0.7,-1.5 1.9,-5.3 3,-9.1 1.4,-4.4 2.6,-8.8 2.6,-8.8 0.7,-5.5 1.6,-9.4 2.6,-12.3 2.1,-6.1 4.2,-7.3 4.8,-7.9 1.1,-1 2.1,-4.5 2.1,-4.5 l 13.4,-1.9 c 0,0 0.8,-0.2 1.8,-0.6 l -4.1,8.8 -0.1,0.4 c 0,0.2 0,0.6 0,0.9 0,3 -1.2,6.8 -3,10.6 -0.5,1.1 -1,2 -1.5,3 m 14.1,10.8 c 0,0 -5.5,8.4 -6.2,9.5 -0.7,1.1 -0.7,2.7 -0.8,3.9 0,0.6 0,1.2 0.1,1.4 0,0.6 -0.5,2.3 -0.5,2.3 -0.1,0.3 -0.1,0.6 -0.1,0.8 0,1.6 0.9,3.3 1.8,4.4 1,1.2 2.2,2 2.5,2.8 v 0.2 c 0.1,0.6 -0.9,2 -2.3,2.6 -0.8,0.4 -2.6,0.6 -4.6,0.6 -1.5,0 -3.1,-0.1 -4.4,-0.3 -2,-0.3 -2.1,-1.7 -2.1,-2.6 0,-0.3 0,-0.4 0,-0.4 0,0.1 1.3,-4.2 1.6,-4.8 0.2,-0.6 0.2,-1.5 0.2,-2.4 0,-0.8 0,-1.6 -0.1,-2.2 -0.1,-0.1 -0.1,-0.2 -0.1,-0.2 0,-1.1 1.3,-4.2 2.5,-5.7 1,-1.5 1.1,-3.8 1.1,-5.6 0,-1 -0.1,-1.9 -0.1,-2.2 -0.1,-0.1 -0.1,-0.6 -0.1,-1.2 0,-3.2 0.1,-11.6 0.1,-13.3 5.8,-1.3 10.9,-2 14.8,-2.4 -0.8,11.1 -3.4,14.7 -3.3,14.8 m 5,26.5 -1.5,-5.6 c -1.2,-3.2 -1.6,-6 -1.6,-8.5 0,-5 1.8,-8.5 2.3,-9.9 0.7,-1.9 5.4,-10.8 5.4,-10.8 l 2.8,-6 0.4,-1.8 c 0.1,-0.4 0.2,-0.8 0.3,-1.5 0.8,-3.2 1.8,-8.7 1.9,-10.8 0,-0.2 0,-0.3 0,-0.5 0,-2.4 -1,-6.7 -1.7,-8.7 -0.4,-0.9 -0.5,-1.7 -0.5,-2.6 0,-0.7 0.1,-1.3 0.2,-2.1 0.1,-1.3 1.9,-7.9 2.3,-9.8 l 8.8,-0.4 c 0.1,0 3,-0.3 5,-1.6 0.3,-0.2 0.4,-0.7 0.2,-1 -0.2,-0.3 -0.7,-0.4 -1,-0.2 -1.6,1 -4.4,1.4 -4.4,1.4 l -13,0.7 c -0.4,0 -0.7,0.4 -0.7,0.8 0,0.4 0.3,0.7 0.7,0.7 v 0 l 2.8,-0.1 c -0.4,2.1 -2,8.1 -2.2,9.5 -0.1,0.7 -0.2,1.4 -0.2,2.3 0,0.9 0.2,2 0.6,3.1 0.7,1.7 1.6,6.1 1.6,8.2 v 0.2 c -0.1,2.1 -1.1,7.7 -1.8,10.8 -0.1,0.4 -0.2,0.8 -0.3,1.1 -1,0 -3.6,0 -7.3,0.4 H 387 c -3.8,0.3 -8.9,1 -14.7,2.3 1.6,-3.5 2.7,-7.1 2.7,-10.1 0,-0.3 -0.1,-0.6 -0.1,-0.9 l 4.4,-9.5 v -0.1 c 0.1,-0.2 0.1,-0.3 0.1,-0.4 1.1,-0.5 2.2,-1.1 2.9,-2 1.8,-2.1 6.7,-10.1 6.7,-10.2 0,0 0.1,-0.1 0.1,-0.1 0.4,-0.7 0.9,-1.4 1.3,-2.2 0,0 0.1,-0.2 0.2,-0.4 0,0 0.1,0 0.1,0 0.1,-0.4 0.3,-0.8 0.4,-1.2 0.6,-1.4 1.6,-3.5 2.5,-5.4 0.1,0.2 1.6,-0.8 1.9,-0.8 5.4,-2.1 7.1,-8.9 7.2,-9 v -0.5 c 2.7,3.2 9.4,10.3 17,12.5 -6.7,8.1 -11.8,16.9 -15.6,25.2 -0.2,-2.7 -0.3,-5 -0.3,-6.5 0,-1.4 0.1,-2.1 0.1,-2.1 0,-0.4 -0.3,-0.7 -0.7,-0.8 -0.4,0 -0.7,0.3 -0.8,0.7 0,0 -0.1,0.8 -0.1,2.1 0,2 0.1,5.1 0.6,8.9 l 0.1,0.1 c -9.4,21.8 -10.6,40.7 -10.6,40.8 0,0.1 0,0.2 0.1,0.2 0,0.2 -0.1,0.4 -0.1,0.6 0,2 1.6,3.9 6,5.2 h 0.1 c 0.1,0 0.1,-0.1 0.2,-0.1 -0.3,1.6 -0.7,3.1 -1.1,3.9 -1.7,4 -2.9,7.1 -2.9,9 v 0 c 0,0.6 -0.1,1.6 -0.4,2.6 -0.1,-0.1 -0.2,-0.1 -0.3,-0.1 -2.7,-0.7 -3.2,-0.8 -5.9,-9 m 5.6,-12.1 c 0,0 2.1,-3.1 2.4,-3.3 0.9,-0.7 2.4,-1.9 4.3,-3.4 -0.3,2.2 -0.9,7.2 -1.6,11.2 -0.1,0 -0.1,-0.1 -0.2,-0.1 -4.2,-1.3 -5.1,-2.8 -5.1,-3.9 0.1,-0.1 0.2,-0.3 0.2,-0.5 m 15.7,29.6 v 0 0.1 c 0,0.8 -1.7,2.6 -2.3,2.9 -0.5,0.4 -2.1,1 -3,1.6 -0.2,0.1 -0.6,0.2 -1.2,0.2 -0.5,0 -1.1,-0.1 -1.6,-0.1 -0.8,0 -3,-0.8 -3,-0.8 h -0.4 c 0,0 -1.6,0.3 -2.9,0.3 -0.2,0 -0.5,0 -0.7,-0.1 -0.8,0.1 -1.1,-1.2 -1.2,-3.4 0,-0.1 0,-0.2 0,-0.4 0,-0.5 0.1,-1.1 0.2,-1.6 0.4,-1.2 0.9,-2.3 1.3,-3 0.6,-1.3 1.6,-5.2 1.6,-7 v 0 h -0.6 0.6 c 0,-1.3 1.2,-4.5 2.8,-8.4 1.8,-4.3 3.1,-17.6 3.1,-17.6 0,0 0,-0.2 0,-0.3 6.9,-5.6 16.9,-13.8 19.5,-17.4 0.3,-0.5 0.7,-1 1.2,-1.4 v 0.4 c 0,15.8 -15.3,37.2 -16.8,40.2 -0.6,1.1 -0.7,2.2 -0.7,3.5 0,1.9 0.4,3.9 0.7,5.1 0.2,0.9 0.4,1.4 0.4,1.4 -0.1,0.4 2.9,4.8 3,5.8 m 26.5,-6.4 h -1.4 c -2.7,-0.1 -3,0 -5.9,-0.2 -1.4,-0.1 -2.9,-0.1 -4.4,-0.2 0,0 -0.1,0 -0.1,-0.1 -4.6,-1 -10.8,-7.9 -10.9,-7.9 -0.2,-0.3 -0.7,-0.3 -1,-0.1 -0.3,0.3 -0.3,0.7 0,1 0.2,0.2 3.9,4.4 8,6.8 -2.2,-0.1 -4.2,-0.2 -6,-0.3 -2,-0.2 -3.7,-0.3 -4.9,-0.4 -0.6,-0.1 -1.1,-0.1 -1.4,-0.2 -0.2,0 -0.3,0 -0.4,-0.1 -0.1,0 -0.2,-0.1 -0.3,-0.1 -0.2,-1.2 -0.5,-2.7 -0.5,-4.1 0,-1.1 0.1,-2.2 0.5,-2.8 0.9,-1.8 7.8,-11.7 12.6,-22.8 2.6,2.9 5.1,5.7 7.5,8.3 0,0.1 -0.1,0.3 -0.1,0.3 0.3,14.9 7,20.7 11.1,22.9 -1,0 -1.7,0 -2.4,0 m 5.7,-0.2 c -0.1,0 -0.1,0 -0.2,0 0,0 -11.8,-2.1 -12.8,-21.4 4.1,4.4 7.2,7.6 7.2,7.6 0.1,0.1 0.3,0.2 0.5,0.2 0.2,0 0.4,-0.1 0.5,-0.2 0.3,-0.3 0.3,-0.7 0,-1 0,0 -8.5,-8.9 -16.2,-17.6 -0.1,-0.1 -0.2,-0.1 -0.3,-0.2 2.3,-5.6 3.9,-11.4 3.9,-16.7 0,-0.5 0,-1 0,-1.5 2.4,-1.5 5.5,-1.8 7.2,-1.8 1,0 1.6,0.1 1.6,0.1 0.4,0 0.8,-0.3 0.8,-0.6 0.1,-0.4 -0.2,-0.7 -0.6,-0.8 0,0 -0.7,-0.1 -1.8,-0.1 -2,0 -5.5,0.3 -8.5,2.3 -0.9,0.6 -1.8,1.4 -2.5,2.4 -2.4,3.3 -12.8,12 -19.7,17.6 -2.3,1.8 -4.2,3.3 -5.3,4.2 -0.2,0.2 -0.4,0.4 -0.6,0.7 0,0.1 -0.3,0.3 -0.6,0.6 1.1,-9.5 6.2,-40.3 27.2,-65.4 0.8,0.1 1.6,0.2 2.4,0.2 0.3,0 0.7,0 1,0 l -5.2,20.5 c -0.1,0.4 0.2,0.8 0.5,0.9 0.4,0.1 0.7,-0.1 0.8,-0.5 l 5.4,-21.2 c 1.5,-0.3 2.9,-0.9 4.3,-1.9 1.9,-1.3 8.5,-4.5 10.5,-8 l 6,-4.9 c 0,0 1.3,-1.1 2.6,-2.8 2.7,6.9 4.4,16.5 5.9,29.5 0.5,4.6 0.7,9 0.7,13.3 0,15.9 -3,29.8 -5.2,38.4 -0.3,-8.5 -1.7,-22.9 -1.7,-32.9 0,-3.2 0.1,-5.9 0.4,-7.8 0.6,-3.4 0.8,-6.8 0.8,-9.7 0,-5.8 -0.8,-10 -0.8,-10 -0.1,-0.4 -0.4,-0.7 -0.8,-0.6 -0.4,0.1 -0.7,0.5 -0.6,0.9 0,0 0.8,4.1 0.8,9.7 0,2.9 -0.2,6.1 -0.8,9.5 -0.4,2 -0.5,4.8 -0.5,8 0,11.6 1.8,28.9 1.8,36.2 0,1 0,1.8 -0.1,2.3 v 0.1 c -0.4,1.9 -0.6,3.9 -0.6,6 0.1,6.3 1.7,12.7 4.5,15.4 -2.7,0.3 -7.5,0.8 -11.9,1"
   id="path63"
   style="fill:#000000" />
<path
   class="st2"
   d="m 330.6,98.2 c 0.2,0 0.4,-0.1 0.6,-0.3 0,0 0.6,-0.8 1.3,-1.4 v 0.1 l 0.3,0.4 c 0.2,0.3 0.7,0.4 1,0.2 0.3,-0.2 0.4,-0.7 0.2,-0.9 l -0.3,-0.4 c -0.1,0 -0.1,-0.1 -0.1,-0.1 0,-0.1 0.2,-0.1 0.2,0 h 0.1 c 0.3,0.2 0.7,0.2 1,-0.1 0.2,-0.3 0.2,-0.7 -0.1,-1 -0.3,-0.3 -0.6,-0.4 -1,-0.4 -2.1,0.2 -3.7,2.9 -3.8,2.9 -0.2,0.3 -0.2,0.8 0.2,1 0.1,0 0.3,0 0.4,0"
   id="path65"
   style="fill:#000000" />
<path
   class="st2"
   d="m 331.1,155.5 c -0.3,0.2 -0.3,0.7 -0.1,1 0.2,0.1 0.4,0.2 0.6,0.2 0.2,0 0.3,-0.1 0.5,-0.2 l 0.6,-0.5 c 0.5,0.2 1,0.3 1.1,0.4 0.4,0.1 0.7,-0.2 0.8,-0.5 0.1,-0.4 -0.1,-0.8 -0.5,-0.9 0,0 -2.4,-0.8 -2.6,-1.3 -0.2,-0.3 -0.7,-0.4 -1,-0.2 -0.4,0.2 -0.5,0.6 -0.2,1 0.3,0.4 0.6,0.7 1,1 z"
   id="path67"
   style="fill:#000000" />
<path
   class="st2"
   d="m 311.8,71 c -0.2,0.4 -0.1,0.8 0.2,1 l 1.2,0.7 -0.3,0.5 c -0.3,0.3 -0.2,0.8 0.1,1 0.4,0.2 0.8,0.1 1,-0.2 l 0.3,-0.6 1.3,0.9 c 0.1,0.1 0.2,0.1 0.4,0.1 0.2,0 0.5,-0.1 0.6,-0.3 0.2,-0.3 0.1,-0.7 -0.2,-1 l -3.7,-2.4 c -0.2,-0.1 -0.7,0 -0.9,0.3"
   id="path69"
   style="fill:#000000" />
<path
   class="st2"
   d="m 366.1,70.8 c -0.4,0 -0.7,-0.1 -0.8,-0.1 0,-0.1 -0.1,-0.1 -0.1,-0.1 -0.3,-0.3 -0.7,-0.3 -0.9,0 0,0.1 -0.2,0 -0.3,0.5 0.1,0.8 0.7,1.2 2.1,1.2 v 0 c 0.4,0 0.7,-0.3 0.7,-0.7 0,-0.4 -0.3,-0.7 -0.7,-0.8"
   id="path71"
   style="fill:#000000" />
<path
   class="st2"
   d="m 362.6,65.8 c -0.1,0.4 0.2,0.8 0.6,0.8 h 0.1 c 0.4,0 0.7,-0.2 0.8,-0.6 v -0.3 c 0.5,0.1 1.1,0.2 1.7,0.2 0.4,0 0.7,-0.3 0.7,-0.7 0,-0.4 -0.3,-0.7 -0.7,-0.7 -2,0 -4,-1.3 -4,-1.3 -0.4,-0.2 -0.8,-0.1 -1,0.2 -0.2,0.3 -0.1,0.8 0.2,1 0,0 0.6,0.4 1.6,0.8 z"
   id="path73"
   style="fill:#000000" />
<polygon
   class="st2"
   points="344.8,145.1 344.9,145.1 "
   id="polygon75"
   transform="translate(17.9,-71.5)" />
<path
   class="st2"
   d="m 365.5,73.2 c -1.1,-0.1 -1.8,-0.7 -1.8,-0.7 -0.3,-0.3 -0.7,-0.2 -1,0.1 -0.3,0.3 -0.2,0.7 0.1,1 0.1,0 1.1,1 2.7,1 0.4,0 0.7,-0.3 0.7,-0.7 0.1,-0.3 -0.3,-0.7 -0.7,-0.7"
   id="path77"
   style="fill:#000000" />
<path
   class="st2"
   d="m 427.6,106.7 c 0.2,0 0.4,-0.1 0.5,-0.3 l 5.7,-5.7 c 0.3,-0.2 0.3,-0.7 0,-1 -0.2,-0.3 -0.7,-0.3 -1,0 l -5.7,5.8 c -0.3,0.3 -0.3,0.7 0,1 0.2,0.1 0.3,0.2 0.5,0.2"
   id="path79"
   style="fill:#000000" />
</svg>
